<?xml version="1.0" encoding="utf-8"?>
<!-- Generated by IcoMoon.io -->
<!DOCTYPE svg PUBLIC "-//W3C//DTD SVG 1.1//EN" "http://www.w3.org/Graphics/SVG/1.1/DTD/svg11.dtd">
<svg version="1.1" xmlns="http://www.w3.org/2000/svg" xmlns:xlink="http://www.w3.org/1999/xlink" width="1067" height="512" viewBox="0 0 1067 512">
<g id="icomoon-ignore">
    <line stroke-width="1" x1="16" y1="0" x2="16" y2="512" stroke="#449FDB" opacity="0.3"></line>
    <line stroke-width="1" x1="32" y1="0" x2="32" y2="512" stroke="#449FDB" opacity="1"></line>
    <line stroke-width="1" x1="48" y1="0" x2="48" y2="512" stroke="#449FDB" opacity="0.3"></line>
    <line stroke-width="1" x1="64" y1="0" x2="64" y2="512" stroke="#449FDB" opacity="1"></line>
    <line stroke-width="1" x1="80" y1="0" x2="80" y2="512" stroke="#449FDB" opacity="0.3"></line>
    <line stroke-width="1" x1="96" y1="0" x2="96" y2="512" stroke="#449FDB" opacity="1"></line>
    <line stroke-width="1" x1="112" y1="0" x2="112" y2="512" stroke="#449FDB" opacity="0.3"></line>
    <line stroke-width="1" x1="128" y1="0" x2="128" y2="512" stroke="#449FDB" opacity="1"></line>
    <line stroke-width="1" x1="144" y1="0" x2="144" y2="512" stroke="#449FDB" opacity="0.3"></line>
    <line stroke-width="1" x1="160" y1="0" x2="160" y2="512" stroke="#449FDB" opacity="1"></line>
    <line stroke-width="1" x1="176" y1="0" x2="176" y2="512" stroke="#449FDB" opacity="0.3"></line>
    <line stroke-width="1" x1="192" y1="0" x2="192" y2="512" stroke="#449FDB" opacity="1"></line>
    <line stroke-width="1" x1="208" y1="0" x2="208" y2="512" stroke="#449FDB" opacity="0.3"></line>
    <line stroke-width="1" x1="224" y1="0" x2="224" y2="512" stroke="#449FDB" opacity="1"></line>
    <line stroke-width="1" x1="240" y1="0" x2="240" y2="512" stroke="#449FDB" opacity="0.3"></line>
    <line stroke-width="1" x1="256" y1="0" x2="256" y2="512" stroke="#449FDB" opacity="1"></line>
    <line stroke-width="1" x1="272" y1="0" x2="272" y2="512" stroke="#449FDB" opacity="0.3"></line>
    <line stroke-width="1" x1="288" y1="0" x2="288" y2="512" stroke="#449FDB" opacity="1"></line>
    <line stroke-width="1" x1="304" y1="0" x2="304" y2="512" stroke="#449FDB" opacity="0.3"></line>
    <line stroke-width="1" x1="320" y1="0" x2="320" y2="512" stroke="#449FDB" opacity="1"></line>
    <line stroke-width="1" x1="336" y1="0" x2="336" y2="512" stroke="#449FDB" opacity="0.3"></line>
    <line stroke-width="1" x1="352" y1="0" x2="352" y2="512" stroke="#449FDB" opacity="1"></line>
    <line stroke-width="1" x1="368" y1="0" x2="368" y2="512" stroke="#449FDB" opacity="0.3"></line>
    <line stroke-width="1" x1="384" y1="0" x2="384" y2="512" stroke="#449FDB" opacity="1"></line>
    <line stroke-width="1" x1="400" y1="0" x2="400" y2="512" stroke="#449FDB" opacity="0.3"></line>
    <line stroke-width="1" x1="416" y1="0" x2="416" y2="512" stroke="#449FDB" opacity="1"></line>
    <line stroke-width="1" x1="432" y1="0" x2="432" y2="512" stroke="#449FDB" opacity="0.3"></line>
    <line stroke-width="1" x1="448" y1="0" x2="448" y2="512" stroke="#449FDB" opacity="1"></line>
    <line stroke-width="1" x1="464" y1="0" x2="464" y2="512" stroke="#449FDB" opacity="0.3"></line>
    <line stroke-width="1" x1="480" y1="0" x2="480" y2="512" stroke="#449FDB" opacity="1"></line>
    <line stroke-width="1" x1="496" y1="0" x2="496" y2="512" stroke="#449FDB" opacity="0.3"></line>
    <line stroke-width="1" x1="512" y1="0" x2="512" y2="512" stroke="#449FDB" opacity="1"></line>
    <line stroke-width="1" x1="528" y1="0" x2="528" y2="512" stroke="#449FDB" opacity="0.3"></line>
    <line stroke-width="1" x1="544" y1="0" x2="544" y2="512" stroke="#449FDB" opacity="1"></line>
    <line stroke-width="1" x1="560" y1="0" x2="560" y2="512" stroke="#449FDB" opacity="0.3"></line>
    <line stroke-width="1" x1="576" y1="0" x2="576" y2="512" stroke="#449FDB" opacity="1"></line>
    <line stroke-width="1" x1="592" y1="0" x2="592" y2="512" stroke="#449FDB" opacity="0.3"></line>
    <line stroke-width="1" x1="608" y1="0" x2="608" y2="512" stroke="#449FDB" opacity="1"></line>
    <line stroke-width="1" x1="624" y1="0" x2="624" y2="512" stroke="#449FDB" opacity="0.3"></line>
    <line stroke-width="1" x1="640" y1="0" x2="640" y2="512" stroke="#449FDB" opacity="1"></line>
    <line stroke-width="1" x1="656" y1="0" x2="656" y2="512" stroke="#449FDB" opacity="0.3"></line>
    <line stroke-width="1" x1="672" y1="0" x2="672" y2="512" stroke="#449FDB" opacity="1"></line>
    <line stroke-width="1" x1="688" y1="0" x2="688" y2="512" stroke="#449FDB" opacity="0.3"></line>
    <line stroke-width="1" x1="704" y1="0" x2="704" y2="512" stroke="#449FDB" opacity="1"></line>
    <line stroke-width="1" x1="720" y1="0" x2="720" y2="512" stroke="#449FDB" opacity="0.3"></line>
    <line stroke-width="1" x1="736" y1="0" x2="736" y2="512" stroke="#449FDB" opacity="1"></line>
    <line stroke-width="1" x1="752" y1="0" x2="752" y2="512" stroke="#449FDB" opacity="0.3"></line>
    <line stroke-width="1" x1="768" y1="0" x2="768" y2="512" stroke="#449FDB" opacity="1"></line>
    <line stroke-width="1" x1="784" y1="0" x2="784" y2="512" stroke="#449FDB" opacity="0.3"></line>
    <line stroke-width="1" x1="800" y1="0" x2="800" y2="512" stroke="#449FDB" opacity="1"></line>
    <line stroke-width="1" x1="816" y1="0" x2="816" y2="512" stroke="#449FDB" opacity="0.3"></line>
    <line stroke-width="1" x1="832" y1="0" x2="832" y2="512" stroke="#449FDB" opacity="1"></line>
    <line stroke-width="1" x1="848" y1="0" x2="848" y2="512" stroke="#449FDB" opacity="0.3"></line>
    <line stroke-width="1" x1="864" y1="0" x2="864" y2="512" stroke="#449FDB" opacity="1"></line>
    <line stroke-width="1" x1="880" y1="0" x2="880" y2="512" stroke="#449FDB" opacity="0.3"></line>
    <line stroke-width="1" x1="896" y1="0" x2="896" y2="512" stroke="#449FDB" opacity="1"></line>
    <line stroke-width="1" x1="912" y1="0" x2="912" y2="512" stroke="#449FDB" opacity="0.3"></line>
    <line stroke-width="1" x1="928" y1="0" x2="928" y2="512" stroke="#449FDB" opacity="1"></line>
    <line stroke-width="1" x1="944" y1="0" x2="944" y2="512" stroke="#449FDB" opacity="0.3"></line>
    <line stroke-width="1" x1="960" y1="0" x2="960" y2="512" stroke="#449FDB" opacity="1"></line>
    <line stroke-width="1" x1="976" y1="0" x2="976" y2="512" stroke="#449FDB" opacity="0.3"></line>
    <line stroke-width="1" x1="992" y1="0" x2="992" y2="512" stroke="#449FDB" opacity="1"></line>
    <line stroke-width="1" x1="1008" y1="0" x2="1008" y2="512" stroke="#449FDB" opacity="0.3"></line>
    <line stroke-width="1" x1="1024" y1="0" x2="1024" y2="512" stroke="#449FDB" opacity="1"></line>
    <line stroke-width="1" x1="1040" y1="0" x2="1040" y2="512" stroke="#449FDB" opacity="0.3"></line>
    <line stroke-width="1" x1="1056" y1="0" x2="1056" y2="512" stroke="#449FDB" opacity="1"></line>
    <line stroke-width="1" x1="0" y1="16" x2="1067" y2="16" stroke="#449FDB" opacity="0.3"></line>
    <line stroke-width="1" x1="0" y1="32" x2="1067" y2="32" stroke="#449FDB" opacity="1"></line>
    <line stroke-width="1" x1="0" y1="48" x2="1067" y2="48" stroke="#449FDB" opacity="0.3"></line>
    <line stroke-width="1" x1="0" y1="64" x2="1067" y2="64" stroke="#449FDB" opacity="1"></line>
    <line stroke-width="1" x1="0" y1="80" x2="1067" y2="80" stroke="#449FDB" opacity="0.3"></line>
    <line stroke-width="1" x1="0" y1="96" x2="1067" y2="96" stroke="#449FDB" opacity="1"></line>
    <line stroke-width="1" x1="0" y1="112" x2="1067" y2="112" stroke="#449FDB" opacity="0.3"></line>
    <line stroke-width="1" x1="0" y1="128" x2="1067" y2="128" stroke="#449FDB" opacity="1"></line>
    <line stroke-width="1" x1="0" y1="144" x2="1067" y2="144" stroke="#449FDB" opacity="0.3"></line>
    <line stroke-width="1" x1="0" y1="160" x2="1067" y2="160" stroke="#449FDB" opacity="1"></line>
    <line stroke-width="1" x1="0" y1="176" x2="1067" y2="176" stroke="#449FDB" opacity="0.3"></line>
    <line stroke-width="1" x1="0" y1="192" x2="1067" y2="192" stroke="#449FDB" opacity="1"></line>
    <line stroke-width="1" x1="0" y1="208" x2="1067" y2="208" stroke="#449FDB" opacity="0.3"></line>
    <line stroke-width="1" x1="0" y1="224" x2="1067" y2="224" stroke="#449FDB" opacity="1"></line>
    <line stroke-width="1" x1="0" y1="240" x2="1067" y2="240" stroke="#449FDB" opacity="0.3"></line>
    <line stroke-width="1" x1="0" y1="256" x2="1067" y2="256" stroke="#449FDB" opacity="1"></line>
    <line stroke-width="1" x1="0" y1="272" x2="1067" y2="272" stroke="#449FDB" opacity="0.3"></line>
    <line stroke-width="1" x1="0" y1="288" x2="1067" y2="288" stroke="#449FDB" opacity="1"></line>
    <line stroke-width="1" x1="0" y1="304" x2="1067" y2="304" stroke="#449FDB" opacity="0.3"></line>
    <line stroke-width="1" x1="0" y1="320" x2="1067" y2="320" stroke="#449FDB" opacity="1"></line>
    <line stroke-width="1" x1="0" y1="336" x2="1067" y2="336" stroke="#449FDB" opacity="0.3"></line>
    <line stroke-width="1" x1="0" y1="352" x2="1067" y2="352" stroke="#449FDB" opacity="1"></line>
    <line stroke-width="1" x1="0" y1="368" x2="1067" y2="368" stroke="#449FDB" opacity="0.3"></line>
    <line stroke-width="1" x1="0" y1="384" x2="1067" y2="384" stroke="#449FDB" opacity="1"></line>
    <line stroke-width="1" x1="0" y1="400" x2="1067" y2="400" stroke="#449FDB" opacity="0.3"></line>
    <line stroke-width="1" x1="0" y1="416" x2="1067" y2="416" stroke="#449FDB" opacity="1"></line>
    <line stroke-width="1" x1="0" y1="432" x2="1067" y2="432" stroke="#449FDB" opacity="0.3"></line>
    <line stroke-width="1" x1="0" y1="448" x2="1067" y2="448" stroke="#449FDB" opacity="1"></line>
    <line stroke-width="1" x1="0" y1="464" x2="1067" y2="464" stroke="#449FDB" opacity="0.3"></line>
    <line stroke-width="1" x1="0" y1="480" x2="1067" y2="480" stroke="#449FDB" opacity="1"></line>
    <line stroke-width="1" x1="0" y1="496" x2="1067" y2="496" stroke="#449FDB" opacity="0.3"></line>
</g>
<path fill="#fe0000" d="M306.134 72.534h147.2c20.267 0 33.067 17.067 28.8 37.334l-68.267 293.334c-5.334 20.267-25.6 37.334-45.867 37.334h-147.2c-20.267 0-33.066-17.067-28.8-37.334l68.267-293.334c5.334-21.334 25.6-37.334 45.867-37.334z"></path>
<path fill="#0b3084" d="M440.534 72.534h168.534c20.266 0 11.734 17.067 6.4 37.334l-68.266 293.334c-4.266 20.267-3.2 37.334-23.466 37.334h-168.534c-20.267 0-33.067-17.067-28.8-37.334l68.267-293.334c5.334-21.334 25.6-37.334 45.866-37.334z"></path>
<path fill="#026b6f" d="M602.667 72.534h147.2c20.266 0 33.067 17.067 28.8 37.334l-68.266 293.334c-5.333 20.267-25.6 37.334-45.866 37.334h-147.2c-20.267 0-33.067-17.067-28.8-37.334l68.267-293.334c5.333-21.334 25.6-37.334 45.866-37.334z"></path>
<path fill="#fff" d="M579.2 347.733h13.866l4.266-12.8h-13.866l-4.266 12.8zM589.866 311.466l-4.266 16c0 0 5.333-3.2 8.534-3.2 3.2-1.067 7.466-1.067 7.466-1.067l3.2-10.666h-14.933zM596.266 289.067l-4.266 14.933c0 0 5.333-2.134 7.466-3.2 3.2-1.067 7.466-1.067 7.466-1.067l3.2-10.666h-13.866zM627.2 289.067l-18.134 59.733h5.333l-4.266 11.733h-4.266l-1.067 4.267h-17.067l1.067-4.267h-34.134l3.2-11.733h3.2l18.134-59.733 3.2-11.733h17.067l-2.134 6.4c0 0 4.266-3.2 8.534-4.267s29.866-1.067 29.866-1.067l-3.2 11.733h-5.333z"></path>
<path fill="#fff" d="M634.667 276.267h18.134v6.4c0 1.067 1.067 2.134 3.2 2.134h4.266l-3.2 11.733h-9.6c-8.534 1.067-11.734-3.2-11.734-7.466l-1.067-12.8z"></path>
<path fill="#fff" d="M637.866 330.666h-18.134l3.2-10.666h20.266l3.2-9.6h-20.266l3.2-11.733h55.466l-3.2 11.733h-18.134l-3.2 9.6h19.2l-3.2 10.666h-20.266l-3.2 4.267h8.534l2.134 12.8c0 1.067 0 2.134 1.067 2.134 0 0 3.2 1.067 4.266 1.067h2.134l-4.266 12.8h-6.4c-1.067 0-2.134 0-4.266 0s-3.2-1.067-4.266-2.134c-1.067-1.067-3.2-2.134-3.2-4.267l-2.134-12.8-9.6 12.8c-3.2 4.267-6.4 7.466-13.866 7.466h-12.8l3.2-10.666h5.333c1.067 0 2.134-1.067 3.2-1.067s2.134-1.067 3.2-2.134l12.8-20.267z"></path>
<path fill="#fff" d="M443.733 302.933h46.933l-3.2 10.666h-19.2l-3.2 9.6h19.2l-3.2 11.733h-19.2l-4.267 16c-1.067 2.134 4.267 2.134 6.4 2.134l9.6-1.067-4.267 12.8h-21.334c-2.134 0-3.2 0-5.334-1.067-2.134 0-2.134-1.067-3.2-2.134s-2.134-2.134-1.067-5.334l6.4-20.267h-10.666l3.2-11.733h10.666l3.2-9.6h-10.666l3.2-11.733z"></path>
<path fill="#fff" d="M475.733 282.666h19.2l-3.2 11.733h-26.666l-3.2 2.134c-1.067 1.067-2.134 1.067-3.2 1.067-1.067 1.067-4.267 2.134-8.534 2.134h-8.534l3.2-11.733h2.134c2.134 0 3.2 0 4.267-1.067s2.134-2.134 3.2-3.2l5.334-8.534h19.2l-3.2 7.466z"></path>
<path fill="#fff" d="M512 301.866c0 0 5.333-4.267 13.866-6.4 2.134 0 14.933 0 14.933 0l2.134-6.4h-26.667l-4.266 12.8zM537.6 307.2h-26.666l-2.134 5.334h23.467c3.2 0 3.2 0 3.2 0l2.134-5.334zM502.4 276.267h16l-2.134 8.534c0 0 5.333-4.267 8.534-5.334s11.734-2.134 11.734-2.134h26.667l-8.534 29.866c-1.067 5.334-3.2 8.534-4.266 9.6s-2.134 3.2-4.266 4.267c-2.134 1.067-4.266 2.134-6.4 2.134s-4.266 0-8.534 0h-25.6l-7.466 23.466c-1.067 2.134-1.067 3.2-1.067 4.267s1.067 1.067 2.134 1.067l11.733-1.067-4.267 12.8h-12.8c-4.267 0-6.4 0-8.534 0s-4.267 0-5.334-1.067c-1.067-1.067-3.2-2.134-3.2-4.267 0-1.067 1.067-3.2 1.067-6.4l24.534-75.733z"></path>
<path fill="#fff" d="M550.4 325.334l-1.067 7.466c-1.067 2.134-1.067 4.267-3.2 5.334s-4.266 3.2-8.534 3.2h-9.6v8.534c0 2.134 0 2.134 1.067 2.134 0 0 1.067 1.067 1.067 1.067h11.734l-3.2 11.733h-9.6c-7.466 0-11.734 0-13.866-1.067s-2.134-2.134-2.134-4.267l1.067-32h16v6.4h4.266c1.067 0 2.134 0 3.2 0 0 0 1.067-1.067 1.067-2.134l1.067-5.334h10.667z"></path>
<path fill="#fff" d="M324.267 165.333c-1.067 2.133-10.666 50.133-10.666 50.133-2.134 9.6-4.267 16-9.6 20.267-3.2 2.133-6.4 4.267-10.666 4.267-6.4 0-10.666-3.2-11.733-9.6v-2.133c0 0 2.134-12.8 2.134-12.8s10.666-42.666 12.8-48c0 0 0 0 0-1.066-21.334 0-24.534 0-24.534 0s-1.067 3.2-1.067 3.2l-10.666 48-1.067 4.267-2.134 13.867c0 4.267 1.067 7.466 2.134 9.6 5.334 8.534 19.2 9.6 26.666 9.6 10.666 0 20.267-2.133 26.666-6.4 11.733-6.4 13.866-17.066 17.067-26.667l1.067-4.267c0 0 10.666-44.8 12.8-50.133 0 0 0 0 0-1.066-13.866 0-18.134 0-19.2-1.066z"></path>
<path fill="#fff" d="M385.067 253.867c-7.466 0-9.6 0-18.134 0v-1.066c1.067-3.2 1.067-6.4 2.134-9.6l1.067-4.267c1.067-7.466 3.2-14.934 3.2-17.066 0-1.066 1.067-5.333-3.2-5.333-2.134 0-3.2 1.066-5.334 2.133-1.067 3.2-3.2 13.867-4.267 19.2-2.134 9.6-2.134 10.666-3.2 16l-1.067 1.066c-7.466 0-10.666 0-19.2 0v-1.066c1.067-6.4 3.2-11.733 4.267-18.133 3.2-16 4.267-22.4 5.334-30.934h1.067c8.534-1.066 10.666-1.066 20.267-3.2l1.067 1.066-1.067 5.333c1.067-1.066 3.2-2.133 4.267-3.2 4.267-2.133 9.6-3.2 11.733-3.2 4.267 0 8.534 1.066 10.666 5.333s1.067 9.6-2.134 19.2l-1.067 5.333c-4.267 11.733-4.267 13.867-6.4 22.4v0z"></path>
<path fill="#fff" d="M414.933 253.867c-4.267 0-7.466 0-9.6 0-3.2 0-5.334 0-9.6 0v0 0c1.067-4.267 2.134-5.333 2.134-7.466 1.067-1.066 1.067-3.2 2.134-7.466 1.067-5.333 2.134-9.6 2.134-12.8 1.067-3.2 1.067-6.4 1.067-9.6v0 0c4.267-1.066 7.466-1.066 9.6-1.066 3.2 0 5.334-1.066 10.666-2.133v0 0c-1.067 3.2-2.134 7.466-2.134 10.666-1.067 3.2-2.134 7.466-2.134 10.666-2.134 7.466-2.134 10.666-3.2 11.733 0 2.133 0 3.2-1.067 7.466v0 0z"></path>
<path fill="#fff" d="M461.866 228.267c0 2.133-2.134 8.534-4.267 11.733-1.067 2.133-3.2 3.2-5.334 3.2-1.067 0-4.267 0-4.267-5.333 0-3.2 0-5.333 1.067-8.534 2.134-8.534 4.267-16 9.6-16 4.267 0 5.334 6.4 3.2 14.934zM481.067 228.267c2.134-11.733 1.067-17.066-2.134-20.267-4.267-5.333-10.666-6.4-18.134-6.4-4.267 0-13.866 0-22.4 7.466-5.334 5.333-8.534 12.8-9.6 19.2-1.067 7.466-3.2 19.2 8.534 24.534 3.2 1.066 8.534 2.133 11.733 2.133 8.534 0 17.067-2.133 23.466-9.6 5.334-5.333 7.466-12.8 8.534-17.066z"></path>
<path fill="#fff" d="M661.333 254.934c-8.534 0-11.734 0-19.2 0v-1.066c2.134-8.534 4.266-17.066 6.4-25.6 2.134-10.667 3.2-16 4.266-22.4l1.067-1.066c8.534-1.066 11.734-2.133 20.266-3.2v1.066c-2.134 7.466-3.2 13.867-5.333 21.334-4.266 14.934-5.333 22.4-7.466 30.934v0z"></path>
<path fill="#fff" d="M648.534 229.333c0 2.133-2.134 8.534-4.266 11.733-1.067 2.133-5.333 3.2-7.466 3.2-1.067 0-4.266 0-4.266-5.333 0-2.133 0-5.333 1.067-8.534 2.134-8.534 4.266-16 9.6-16 5.333 1.066 7.466 5.333 5.333 14.934zM665.6 229.333c2.134-11.733-7.466-1.066-9.6-4.267-2.134-5.333-1.067-17.066-11.734-21.333-4.266-1.066-12.8 0-21.333 7.466-5.333 5.333-8.534 11.733-9.6 19.2-2.134 6.4-3.2 19.2 7.466 23.466 3.2 1.066 6.4 2.133 10.667 2.133 11.734-1.066 20.266-18.133 26.667-24.534s7.466 1.066 7.466-2.133z"></path>
<path fill="#fff" d="M531.2 253.867c-7.466 0-9.6 0-18.134 0v-1.066c1.067-3.2 1.067-6.4 2.134-9.6l1.067-4.267c2.134-7.466 3.2-14.934 3.2-17.066 0-1.066 1.067-5.333-3.2-5.333-2.134 0-3.2 1.066-5.334 2.133-1.067 3.2-3.2 13.867-4.267 19.2-2.134 9.6-2.134 10.666-3.2 16l-1.067 1.066c-7.466 0-10.666 0-19.2 0v-1.066c1.067-6.4 3.2-11.733 4.267-18.133 3.2-16 4.267-22.4 5.334-30.934h1.067c8.534-1.066 10.666-1.066 20.266-3.2l1.067 1.066-1.067 5.333c1.067-1.066 3.2-2.133 4.266-3.2 4.266-2.133 9.6-3.2 11.734-3.2 4.266 0 8.534 1.066 10.667 5.333s1.067 9.6-2.134 19.2l-1.067 5.333c-3.2 11.733-4.266 13.867-6.4 22.4v0z"></path>
<path fill="#fff" d="M595.2 165.333c0 0-6.4 0-6.4 0-16 0-22.4 0-24.534 0 0 1.066-1.067 3.2-1.067 3.2s-5.333 26.667-5.333 26.667c0 0-13.866 56.534-13.866 58.666 13.866 0 19.2 0 22.4 0 1.067-2.133 4.266-18.133 4.266-18.133s3.2-11.733 3.2-11.733c0 0 1.067-1.066 2.134-2.133h1.067c11.734 0 25.6 0 36.266-7.466 7.466-5.333 11.734-12.8 14.933-22.4 1.067-2.133 1.067-5.333 1.067-7.466 0-3.2-1.067-7.466-3.2-10.667-7.466-8.534-18.134-8.534-30.933-8.534zM603.734 193.066c-1.067 6.4-5.333 10.667-9.6 12.8s-8.534 2.133-13.866 2.133h-3.2v-1.066c0 0 6.4-26.667 6.4-26.667v-2.133h2.134c0 0 12.8 1.066 12.8 1.066 4.266 3.2 6.4 7.466 5.333 13.867z"></path>
<path fill="#fff" d="M734.933 202.667v0c-9.6 1.066-11.734 1.066-20.266 2.133l-1.067 1.066c0 0 0 0 0 0v0c-6.4 13.867-6.4 11.733-10.667 22.4 0 0 0-1.066 0-1.066l-1.067-24.534-1.067-1.066c-9.6 2.133-9.6 2.133-18.134 3.2l-1.067 1.066c0 0 0 1.066 0 1.066v0c1.067 5.333 1.067 4.267 2.134 12.8 0 4.267 1.067 8.534 2.134 12.8 1.067 7.466 1.067 10.666 2.134 21.334-6.4 9.6-7.466 13.866-12.8 22.4v1.067c8.534 0 10.667 0 17.067 0l1.067-1.067c4.266-10.666 41.6-73.6 41.6-73.6z"></path>
<path fill="#fff" d="M422.4 209.066c5.334-3.2 5.334-8.534 1.067-10.667s-11.733-2.133-16 2.133c-5.334 3.2-5.334 8.534-1.067 10.667s11.733 1.066 16-2.133z"></path>
<path fill="#fff" d="M692.266 277.334l-7.466 12.8c-2.134 4.267-6.4 7.466-12.8 7.466h-11.734l3.2-10.666h2.134c1.067 0 2.134 0 2.134 0 1.067 0 1.067-1.067 1.067-1.067l4.266-6.4h19.2z"></path>
</svg>
