<?xml version="1.0" encoding="utf-8"?>
<!-- Generated by IcoMoon.io -->
<!DOCTYPE svg PUBLIC "-//W3C//DTD SVG 1.1//EN" "http://www.w3.org/Graphics/SVG/1.1/DTD/svg11.dtd">
<svg version="1.1" xmlns="http://www.w3.org/2000/svg" xmlns:xlink="http://www.w3.org/1999/xlink" width="1067" height="512" viewBox="0 0 1067 512">
<g id="icomoon-ignore">
</g>
<path fill="#009ddd" d="M468.394 390.407c36.606-33.175 59.606-81.108 59.606-134.402 0-53.3-23-101.227-59.606-134.402-32.181-29.165-74.879-46.936-121.729-46.936-100.142 0-181.332 81.189-181.332 181.338 0 100.147 81.19 181.328 181.332 181.328 46.851-0.003 89.548-17.764 121.729-46.926v0 0 0 0z"></path>
<path fill="#ed1c2e" d="M584.607 80c-47.384 0-90.566 17.771-123.113 46.933-6.632 5.943-12.825 12.365-18.516 19.199h37.022c5.065 6.084 9.741 12.494 13.988 19.202h-64.992c-3.896 6.165-7.435 12.571-10.574 19.202h86.123c2.945 6.213 5.55 12.619 7.778 19.199h-101.667c-2.116 6.251-3.899 12.661-5.325 19.199h112.323c2.697 12.381 4.125 25.226 4.125 38.404 0 20.132-3.322 39.5-9.453 57.596h-101.671c2.225 6.577 4.82 12.989 7.765 19.202h86.123c-3.142 6.628-6.664 13.041-10.56 19.202h-64.988c4.24 6.709 8.916 13.121 13.978 19.202h37.026c-5.695 6.834-11.875 13.259-18.507 19.202 32.546 29.161 75.729 46.926 123.113 46.926 101.28 0 183.393-81.182 183.393-181.327 0-100.152-82.112-181.34-183.393-181.34v0 0 0 0z"></path>
<path fill="#fff" d="M326.389 306.26h-22.906l13.613-72.264-31.344 72.264h-20.887l-3.817-71.853-13.656 71.853h-20.792l17.767-94.007h35.744l1.891 58.2 25.202-58.2h37.247l-18.060 94.007z"></path>
<path fill="#fff" d="M582.387 305.322c-6.271 1.733-11.167 2.479-16.462 2.479-11.723 0-18.119-5.923-18.119-16.787 0-2.151 0.234-4.439 0.674-6.86l1.394-7.481 1.072-6.050 10.618-58.371h22.782l-3.302 17.556h11.69l-3.144 18.585h-11.736l-6.038 31.896c-0.266 1.401-0.391 2.453-0.391 3.166 0 3.942 2.371 5.666 7.819 5.666 2.607 0 4.626-0.237 6.176-0.714l-3.035 16.912z"></path>
<path fill="#fff" d="M649.288 230.438c-1.917-0.76-2.371-0.76-2.591-0.826-1.213-0.269-1.861-0.428-1.973-0.447-0.694-0.128-1.466-0.19-2.305-0.19-7.524 0-12.939 3.377-19.953 12.413l2.023-11.582h-20.746l-13.962 76.453h22.923c8.198-46.757 11.713-54.947 22.712-54.947 0.822 0 1.785 0.066 2.89 0.194l2.68 0.553 8.303-21.62z"></path>
<path fill="#fff" d="M491.584 253.962c0 9.658 5.399 16.31 17.645 21.308 9.385 3.834 10.835 4.966 10.835 8.431 0 4.765-4.136 6.912-13.301 6.912-6.918 0-13.351-0.937-20.772-3.025l-3.176 17.635 1.026 0.175 4.248 0.776c1.361 0.237 3.38 0.47 6.054 0.674 5.511 0.424 9.776 0.635 12.781 0.635 24.452 0 35.748-8.073 35.748-25.51 0-10.493-4.722-16.645-16.337-21.279-9.713-3.87-10.835-4.728-10.835-8.297 0-4.117 3.854-6.238 11.341-6.238 4.551 0 10.756 0.431 16.649 1.148l3.302-17.697c-6.001-0.826-15.103-1.5-20.391-1.5-25.925 0.004-34.899 11.749-34.817 25.852v0 0 0 0z"></path>
<path fill="#fff" d="M400.859 306.26h-19.036l0.444-7.925c-5.798 6.274-13.525 9.247-24.027 9.247-12.413 0-20.933-8.517-20.933-20.881 0-18.625 14.8-29.48 40.239-29.48 2.608 0 5.923 0.207 9.332 0.589 0.711-2.512 0.904-3.597 0.904-4.965 0-5.064-3.995-6.955-14.692-6.955-6.541 0-13.933 0.828-19.039 2.131l-3.173 0.812-2.055 0.493 3.176-17.191c11.423-2.943 18.957-4.058 27.425-4.058 19.687 0 30.091 7.767 30.091 22.423 0 3.772-0.346 6.639-1.858 15.149l-4.791 27.122-0.805 4.866-0.586 3.887-0.392 2.667-0.224 2.068zM384.144 272.199c-2.401-0.257-3.459-0.322-5.12-0.322-12.983 0-19.559 3.916-19.559 11.637 0 4.758 3.209 7.796 8.217 7.796 9.339 0.003 16.067-7.806 16.462-19.111v0 0 0 0z"></path>
<path fill="#fff" d="M476.010 304.608c-7.853 2.094-15.449 3.114-23.476 3.094-25.61-0.013-38.957-11.759-38.957-34.245 0-26.244 16.981-45.566 40.032-45.566 18.858 0 30.897 10.825 30.897 27.79 0 5.633-0.819 11.125-2.808 18.878h-45.55c-0.175 1.174-0.221 1.704-0.221 2.401 0 8.862 6.791 13.384 20.095 13.384 8.182 0 15.577-1.496 23.788-4.837l-3.801 19.102zM463.807 259.118c0.125-1.591 0.19-2.894 0.19-3.9 0-6.208-4.015-9.852-10.835-9.852-7.287 0-12.499 4.887-14.613 13.706l25.257 0.046z"></path>
<path fill="#fff" d="M720.496 271.597c-3.427 25.432-21.058 36.711-44.494 36.711-25.915 0-36.385-15.837-36.385-35.241 0-27.096 17.727-45.454 45.109-45.454 23.764 0 36.379 15.1 36.379 34.498 0 4.719-0.006 5.041-0.609 9.487v0 0 0 0zM696.905 261.815c0-7.997-3.222-15.55-12.617-15.55-11.683 0-18.931 13.916-18.931 26.211 0 10.358 4.966 17.329 13.154 17.182 4.968 0 15.55-6.82 17.649-18.714 0.49-2.782 0.746-5.827 0.746-9.128v0 0 0 0z"></path>
</svg>
