<?xml version="1.0" encoding="utf-8"?>
<!-- Generated by IcoMoon.io -->
<!DOCTYPE svg PUBLIC "-//W3C//DTD SVG 1.1//EN" "http://www.w3.org/Graphics/SVG/1.1/DTD/svg11.dtd">
<svg version="1.1" xmlns="http://www.w3.org/2000/svg" xmlns:xlink="http://www.w3.org/1999/xlink" width="1067" height="512" viewBox="0 0 1067 512">
<g id="icomoon-ignore">
</g>
<path fill="#f59511" d="M649.866 216.934c0 84.4-68.266 152.934-152.534 152.934s-152.534-68.4-152.534-152.934 68.267-152.934 152.534-152.934c84.266 0 152.534 68.4 152.534 152.934v0z"></path>
<path fill="#ea1c24" d="M461.6 216.934c0 84.4-68.267 152.934-152.534 152.934s-152.534-68.4-152.534-152.934 68.267-152.934 152.534-152.934c84.267 0 152.534 68.4 152.534 152.934v0z"></path>
<path fill="#f14d1c" d="M403.2 96.534c-35.6 28-58.4 71.466-58.4 120.4 0 48.8 22.8 92.4 58.4 120.4 35.6-28 58.4-71.466 58.4-120.4s-22.8-92.4-58.4-120.4z"></path>
<path fill="#f59511" d="M640.534 298v-4.534h1.866v-0.933h-4.667v0.933h1.866v4.534h0.933zM649.6 298v-5.466h-1.466l-1.6 3.733-1.6-3.733h-1.466v5.466h1.067v-4.134l1.6 3.6h1.067l1.6-3.6v4.134h0.8z"></path>
<path fill="#100f0d" d="M190.4 445.466h-8.667v-40.4h8.534v4.933c0 0 7.466-6 11.867-6 8.667 0.134 13.733 7.466 13.733 7.466s4.133-7.466 13.6-7.466c13.867 0 16 12.666 16 12.666v28.534h-8.267v-25.067c0 0 0-7.6-8.934-7.6-9.333 0-10.133 7.6-10.133 7.6v25.067h-8.666v-25.334c0 0-0.8-8-8.666-8-10.133 0-10.4 8.134-10.4 8.134v25.466z"></path>
<path fill="#100f0d" d="M453.733 404c-4.4-0.134-11.866 6-11.866 6v-4.933h-8.534v40.267h8.666l-0.134-25.334c0 0 0.134-8.134 10.4-8.134 1.866 0 3.334 0.4 4.534 1.2v0l2.8-7.866c-1.733-0.666-3.733-1.2-5.866-1.2z"></path>
<path fill="#100f0d" d="M575.734 404c-4.4-0.134-11.866 6-11.866 6v-4.933h-8.534v40.267h8.667l-0.134-25.334c0 0 0.134-8.134 10.4-8.134 1.866 0 3.333 0.4 4.534 1.2v0l2.8-7.866c-1.866-0.666-3.734-1.2-5.866-1.2v0z"></path>
<path fill="#100f0d" d="M275.067 412c6.933 0 12.666 6 12.666 13.466s-5.6 13.466-12.666 13.466c-6.933 0-12.534-6-12.534-13.466-0.134-7.334 5.6-13.466 12.534-13.466zM273.334 403.866c-12.933 0-19.867 11.6-19.867 21.334 0 10 7.867 21.466 20.266 21.466 7.2 0 13.2-5.334 13.2-5.334v4.134h8.534v-40.4h-8.534v5.067c0 0-5.6-6.267-13.6-6.267v0z"></path>
<path fill="#100f0d" d="M523.6 412c6.933 0 12.667 6 12.667 13.466s-5.6 13.466-12.667 13.466c-6.933 0-12.534-6-12.534-13.466 0-7.334 5.6-13.466 12.534-13.466zM522 403.866c-12.933 0-19.866 11.6-19.866 21.334 0 10 7.866 21.466 20.266 21.466 7.2 0 13.2-5.334 13.2-5.334v4.134h8.534v-40.4h-8.534v5.067c-0.134 0-5.734-6.267-13.6-6.267v0z"></path>
<path fill="#100f0d" d="M605.466 412c6.933 0 12.667 6 12.667 13.466s-5.6 13.466-12.667 13.466-12.534-6-12.534-13.466c0-7.334 5.6-13.466 12.534-13.466zM603.734 403.866c-12.933 0-19.866 11.6-19.866 21.334 0 10 7.866 21.466 20.266 21.466 7.2 0 13.2-5.334 13.2-5.334v4.134h8.534v-56.4h-8.534v21.067c0 0-5.6-6.267-13.6-6.267v0z"></path>
<path fill="#100f0d" d="M321.466 446.8c-8.8 0-16.933-5.466-16.933-5.466l3.733-5.733c0 0 7.733 3.6 13.2 3.6 3.6 0 9.6-1.2 9.733-4.8 0.134-3.733-10.134-4.933-10.134-4.933s-15.2-0.267-15.2-12.8c0-7.866 7.6-12.933 17.334-12.933 5.6 0 16.134 4.933 16.134 4.933l-4.267 6.666c0 0-8.134-3.2-12.4-3.334-3.6-0.134-8 1.6-8 4.8 0 8.534 25.334-0.666 25.334 16.666 0 11.2-10.4 13.334-18.534 13.334v0z"></path>
<path fill="#100f0d" d="M354 393.334v11.733h-7.6v8.534h7.6v20.267c0 0-0.666 13.733 14.134 13.733 4.134 0 12.134-3.067 12.134-3.067l-3.466-8.8c0 0-3.2 2.666-6.8 2.666-6.8-0.134-6.666-4.534-6.666-4.534v-20.267h14.134v-8.534h-14.134v-11.733h-9.334z"></path>
<path fill="#100f0d" d="M404 412.267c0.267 0 0.666 0 1.067 0 10.4 0 10.267 9.866 10.267 9.866h-21.067c0.134-0.134-0.4-9.334 9.733-9.866zM405.334 404.267c-13.866 0-20.8 11.466-20.8 21.334 0 10.267 6.267 21.733 21.6 21.733 6.534 0 15.733-5.733 15.733-5.733l-4-6.933c0 0-6.267 4.4-11.733 4.4-11.067 0-11.733-10.8-11.733-10.8h29.6c0 0.134 2.134-24-18.666-24z"></path>
<path fill="#100f0d" d="M493.2 434.666l4 7.866c0 0-6.267 4.134-13.334 4.134-14.534 0-22.666-10.933-22.666-21.334 0-16.267 12.933-21.067 21.6-21.067 7.866 0 14.8 4.534 14.8 4.534l-4.4 7.866c0 0-2.666-4.267-10.534-4.267s-12 6.8-12 13.2c0 7.2 4.8 13.334 12.134 13.334 5.6 0 10.4-4.267 10.4-4.267v0z"></path>
<path fill="#100f0d" d="M644 442.666c0.266 0 0.4 0 0.534 0.134s0.134 0.267 0.134 0.4c0 0.134 0 0.267-0.134 0.4s-0.266 0.134-0.534 0.134h-0.933v-1.067h0.933zM644 442h-1.734v3.733h0.8v-1.466h0.4l1.2 1.466h0.933l-1.2-1.466c0.4 0 0.667-0.134 0.933-0.4s0.266-0.4 0.266-0.8c0-0.4-0.134-0.666-0.4-0.933-0.4 0-0.8-0.134-1.2-0.134zM643.734 447.067c-0.933 0-1.734-0.267-2.266-0.933-0.534-0.534-0.933-1.334-0.933-2.267s0.266-1.6 0.933-2.267c0.534-0.534 1.333-0.933 2.266-0.933s1.6 0.267 2.266 0.933c0.534 0.534 0.933 1.334 0.933 2.267s-0.266 1.6-0.933 2.267c-0.667 0.666-1.333 0.933-2.266 0.933zM643.734 439.866c-1.2 0-2.134 0.4-2.933 1.2s-1.2 1.733-1.2 2.933c0 1.2 0.4 2.134 1.2 2.933s1.734 1.2 2.933 1.2c1.2 0 2.134-0.4 2.933-1.2s1.2-1.733 1.2-2.933c0-1.2-0.4-2.134-1.2-2.933s-1.734-1.2-2.933-1.2z"></path>
</svg>
