<?xml version="1.0" encoding="utf-8"?>
<!-- Generated by IcoMoon.io -->
<!DOCTYPE svg PUBLIC "-//W3C//DTD SVG 1.1//EN" "http://www.w3.org/Graphics/SVG/1.1/DTD/svg11.dtd">
<svg version="1.1" xmlns="http://www.w3.org/2000/svg" xmlns:xlink="http://www.w3.org/1999/xlink" width="1067" height="512" viewBox="0 0 1067 512">
<g id="icomoon-ignore">
</g>
<path fill="#008bb6" d="M745.162 362.798v-19.695c0 0-1.083-15.413-17.726-15.413h-25.861v35.108h-26.609v-101.212h64.524c0 0 33.679-3.938 33.679 29.627 0 17.468-14.89 23.633-14.89 23.633s12.763 5.822 12.763 22.93v25.003h-25.88zM701.555 303.887h27.495c7.957 0 14.516-4.281 14.516-9.591s-6.558-9.591-14.516-9.591h-27.495v19.181z"></path>
<path fill="#008bb6" d="M567.899 362.94h-23.221l-28.186-29.969-28.362 29.969h-98.912v-101.383h96.786l30.489 32.195 30.667-32.024h20.385v-0.171h64.524c0 0 33.679-3.596 33.679 29.779 0 29.798-11.168 39.065-45.557 39.065h-26.058v32.538h-26.235zM534.573 313.124l32.971 35.278v-70.386l-32.971 35.108zM415.984 341.038h56.016l26.235-27.914-26.235-27.762h-56.015v15.565h54.597v22.967h-54.597v17.144zM594.134 304.028h27.476c7.976 0 14.536-4.281 14.536-9.591 0-5.289-6.558-9.591-14.536-9.591h-27.476v19.181z"></path>
<path fill="#008bb6" d="M926.501 362.504h-47.33v-23.31h41.48c0 0 14.89 1.713 14.89-8.029 0-9.115-22.513-8.391-22.513-8.391s-36.693 3.082-36.693-30.14c0-33.051 33.148-31.168 33.148-31.168h51.071v23.633h-41.125c0 0-14.201-2.76-14.201 7.212 0 8.353 19.302 7.173 19.302 7.173s40.613-2.892 40.613 27.572c0 32.69-26.156 35.583-35.433 35.583-1.989-0.019-3.211-0.133-3.211-0.133z"></path>
<path fill="#008bb6" d="M784.159 362.484v-101.040h82.939v23.462h-56.173v15.584h54.774v22.968h-54.774v17.125h56.173v21.902h-82.939z"></path>
<path fill="#008bb6" d="M1020.274 362.504h-47.33v-23.31h41.322c0 0 15.067 1.713 15.067-8.029 0-9.115-22.513-8.391-22.513-8.391s-36.693 3.082-36.693-30.14c0-33.051 33.148-31.168 33.148-31.168h50.894v23.633h-40.967c0 0-14.182-2.76-14.182 7.212 0 8.353 19.322 7.173 19.322 7.173s40.593-2.892 40.593 27.572c0 32.69-26.156 35.583-35.433 35.583-2.029-0.019-3.23-0.133-3.23-0.133z"></path>
<path fill="#008bb6" d="M649.26 254.191v-19.695c0 0-1.083-15.413-17.726-15.413h-25.88v35.107h-26.59v-101.192h64.524c0 0 33.679-3.938 33.679 29.627 0 17.468-14.89 23.633-14.89 23.633s12.92 5.841 12.92 22.968v24.984h-26.038zM605.653 195.28h27.476c7.976 0 14.536-4.281 14.536-9.59s-6.558-9.59-14.536-9.59h-27.476v19.181z"></path>
<path fill="#008bb6" d="M963.015 254.191l-42.188-67.646v67.646h-52.115l-9.415-21.235h-48.571l-9.237 21.235h-41.657c0 0-35.788-4.966-35.788-47.78 0-56.172 40.613-53.945 42.011-54.288l32.794 0.857v22.777l-26.924 0.342c0 0-17.569 0-19.697 22.111-0.256 2.531-0.374 4.871-0.354 7.040 0.099 34.214 30.745 23.595 31.729 23.272l32.971-75.523h37.225l39.865 91.792v-91.793h37.58l41.657 66.618v-66.618h26.767v101.192h-36.654zM822.091 207.096h25.861l-12.744-30.141-13.118 30.141z"></path>
<path fill="#008bb6" d="M436.918 254.673v-69.853l-33.325 69.853h-21.803l-33.503-69.529v69.529h-52.47l-9.217-21.235h-48.571l-9.395 21.235h-29.071l44.138-101.192h37.403l40.416 92.991v-92.991h42.011l29.248 62.85 29.071-62.85h42.011v101.192h-26.943zM249.375 207.577h25.88l-12.94-30.141-12.94 30.141z"></path>
<path fill="#008bb6" d="M482.279 254.191v-101.192h82.959v23.613h-56.192v15.584h54.774v22.948h-54.774v17.144h56.192v21.902h-82.959z"></path>
<path fill="#008bb6" d="M688.258 254.535v-101.534h26.767v101.534h-26.767z"></path>
</svg>
