<?xml version="1.0" standalone="no"?>
<!DOCTYPE svg PUBLIC "-//W3C//DTD SVG 1.1//EN" "http://www.w3.org/Graphics/SVG/1.1/DTD/svg11.dtd" >
<svg xmlns="http://www.w3.org/2000/svg">
<metadata>Generated by IcoMoon</metadata>
<defs>
<font id="icomoon" horiz-adv-x="1024">
<font-face units-per-em="1024" ascent="960" descent="-64" />
<missing-glyph horiz-adv-x="1024" />
<glyph unicode="&#x20;" horiz-adv-x="512" d="" />
<glyph unicode="&#xe600;" glyph-name="furnishings" d="M533.333-85.333c0 0 0 1024 0 1024s490.667 0 490.667 0c0 0 0-1024 0-1024s-490.667 0-490.667 0zM960 874.667c0 0-362.667 0-362.667 0s0-896 0-896c0 0 362.667 0 362.667 0s0 896 0 896zM704 490.667c35.349 0 64-28.651 64-64s-28.651-64-64-64c-35.349 0-64 28.651-64 64s28.651 64 64 64zM0 469.334c0 0 469.333 0 469.333 0s0-554.667 0-554.667c0 0-469.333 0-469.333 0s0 554.667 0 554.667zM64-21.333c0 0 341.333 0 341.333 0s0 192 0 192c0 0-341.333 0-341.333 0s0-192 0-192zM64 234.667c0 0 341.333 0 341.333 0s0 170.667 0 170.667c0 0-341.333 0-341.333 0s0-170.667 0-170.667zM234.667 277.334c-23.573 0-42.667 19.093-42.667 42.667s19.093 42.667 42.667 42.667c23.573 0 42.667-19.093 42.667-42.667s-19.093-42.667-42.667-42.667zM234.667 21.334c-23.573 0-42.667 19.093-42.667 42.667s19.093 42.667 42.667 42.667c23.573 0 42.667-19.093 42.667-42.667s-19.093-42.667-42.667-42.667z" />
<glyph unicode="&#xe601;" glyph-name="da" horiz-adv-x="1003" d="M937.536-64c0 0-114.325 426.667-114.325 426.667s-204.544 0-204.544 0c0 0-59.413 0-59.413 0s-64 0-64 0c0 0-102.891 384-102.891 384s64 0 64 0c0 0 22.869-85.333 22.869-85.333s278.101 0 278.101 0c17.664 0 32-14.336 32-32s-14.336-32-32-32c0 0-260.949 0-260.949 0s45.739-170.667 45.739-170.667c0 0 323.968 0 323.968 0s5.717-21.333 5.717-21.333c0 0 3.989 0 3.989 0s125.739-469.333 125.739-469.333c0 0-64 0-64 0zM405.333 810.667c-35.349 0-64 28.651-64 64s28.651 64 64 64c35.349 0 64-28.651 64-64s-28.651-64-64-64zM368.448 597.078c-168.555-2.624-304.448-139.883-304.448-309.077 0-170.837 138.496-309.333 309.333-309.333s309.333 138.496 309.333 309.333c0 3.605-0.427 7.104-0.533 10.667 0 0 64 0 64 0 0.107-3.584 0.533-7.061 0.533-10.667 0-206.187-167.147-373.333-373.333-373.333s-373.333 167.147-373.333 373.333c0 198.827 155.541 360.875 351.531 372.224 0 0 16.917-63.147 16.917-63.147z" />
<glyph unicode="&#xe602;" glyph-name="terrace" d="M128 277.333c0-200.32 162.346-362.666 362.666-362.666h21.334c200.342 0 362.666 162.346 362.666 362.666 0 45.014-6.4 88.106-21.334 128-123.968 0-233.174-62.080-298.666-156.8v162.134c121.814 24.746 213.334 132.266 213.334 261.334v224.426c0 23.254-19.2 42.24-42.666 42.24-11.968 0-22.826-4.906-30.506-12.8l-81.068-80.214-80.426 80.214c-17.066 17.066-44.586 17.066-61.44 0l-81.706-81.494-82.348 81.494c-7.68 7.894-18.56 12.8-30.506 12.8-23.466 0-42.666-18.986-42.666-42.24l-0.002-224.426c0-129.066 91.52-236.586 213.334-261.334v-162.134c-65.494 94.72-174.72 156.8-298.666 156.8-14.934-39.892-21.334-82.986-21.334-128z" />
<glyph unicode="&#xe603;" glyph-name="garage" d="M807.253 682.24c-8.747 25.173-32.64 43.093-60.587 43.093h-469.333c-27.947 0-51.84-17.92-60.587-43.093l-88.747-255.573v-341.333c0-23.467 19.2-42.667 42.667-42.667h42.667c23.68 0 42.667 19.2 42.667 42.667v42.667h512v-42.667c0-23.467 19.2-42.667 42.667-42.667h42.667c23.68 0 42.667 19.2 42.667 42.667v341.333l-88.747 255.573zM277.333 256c-35.413 0-64 28.587-64 64s28.587 64 64 64 64-28.587 64-64-28.587-64-64-64zM746.667 256c-35.413 0-64 28.587-64 64s28.587 64 64 64 64-28.587 64-64-28.587-64-64-64zM213.333 469.334l64 192h469.333l64-192h-597.333z" />
<glyph unicode="&#xe604;" glyph-name="weibo" d="M385.714 217.143q12 19.429 6.286 39.429t-25.714 28.571q-19.429 8-41.714 0.571t-34.286-26.286q-12.571-19.429-7.429-39.143t24.571-28.857 42.571-1.429 35.714 27.143zM439.429 286.286q4.571 7.429 2 15.143t-10 10.571q-8 2.857-16.286-0.286t-12.286-10.571q-9.714-17.714 7.429-25.714 8-2.857 16.571 0.286t12.571 10.571zM538.857 225.143q-25.714-58.286-90.286-85.714t-128-6.857q-61.143 19.429-84.286 72.286t3.714 107.143q26.857 53.143 86.571 79.429t120.286 10.857q63.429-16.571 90.571-68.286t1.429-108.857zM717.143 316.571q-5.143 54.857-50.857 97.143t-119.143 62.286-156.857 12q-127.429-13.143-211.143-80.857t-75.714-151.143q5.143-54.857 50.857-97.143t119.143-62.286 156.857-12q127.429 13.143 211.143 80.857t75.714 151.143zM893.143 314.286q0-38.857-21.143-79.714t-62.286-78.286-96.286-67.143-129.143-47.429-154.571-17.714-157.143 19.143-137.429 53.143-98 86.286-37.143 114q0 65.714 39.714 140t112.857 147.429q96.571 96.571 195.143 134.857t140.857-4q37.143-36.571 11.429-119.429-2.286-8-0.571-11.429t5.714-4 8.286 0.286 7.714 2l3.429 1.143q79.429 33.714 140.571 33.714t87.429-34.857q25.714-36 0-101.714-1.143-7.429-2.571-11.429t2.571-7.143 6.857-4.286 9.714-3.429q32.571-10.286 58.857-26.857t45.714-46.571 19.429-66.571zM850.857 670.857q24-26.857 31.143-62t-3.714-67.143q-4.571-13.143-16.857-19.429t-25.429-2.286q-13.143 4.571-19.429 16.857t-2.286 25.429q11.429 36-13.714 63.429t-61.143 20q-13.714-2.857-25.714 4.571t-14.286 21.143q-2.857 13.714 4.571 25.429t21.143 14.571q34.286 7.429 68-3.143t57.714-37.429zM954.286 764q49.714-54.857 64.286-127.143t-7.714-138q-5.143-15.429-19.429-22.857t-29.714-2.286-22.857 19.429-2.857 29.714q16 46.857 5.714 98.286t-45.714 90.286q-35.429 39.429-84.571 54.571t-98.857 4.857q-16-3.429-29.714 5.429t-17.143 24.857 5.429 29.429 24.857 16.857q70.286 14.857 139.429-6.571t118.857-76.857z" />
<glyph unicode="&#xe605;" glyph-name="wechat" horiz-adv-x="1170" d="M331.429 687.428q0 23.429-14.286 37.714t-37.714 14.286q-24.571 0-43.429-14.571t-18.857-37.429q0-22.286 18.857-36.857t43.429-14.571q23.429 0 37.714 14t14.286 37.429zM756 397.714q0 16-14.571 28.571t-37.429 12.571q-15.429 0-28.286-12.857t-12.857-28.286q0-16 12.857-28.857t28.286-12.857q22.857 0 37.429 12.571t14.571 29.143zM621.143 687.428q0 23.429-14 37.714t-37.429 14.286q-24.571 0-43.429-14.571t-18.857-37.429q0-22.286 18.857-36.857t43.429-14.571q23.429 0 37.429 14t14 37.429zM984 397.714q0 16-14.857 28.571t-37.143 12.571q-15.429 0-28.286-12.857t-12.857-28.286q0-16 12.857-28.857t28.286-12.857q22.286 0 37.143 12.571t14.857 29.143zM832 624.571q-17.714 2.286-40 2.286-96.571 0-177.714-44t-127.714-119.143-46.571-164.286q0-44.571 13.143-86.857-20-1.714-38.857-1.714-14.857 0-28.571 0.857t-31.429 3.714-25.429 4-31.143 6-28.571 6l-144.571-72.571 41.143 124.571q-165.714 116-165.714 280 0 96.571 55.714 177.714t150.857 127.714 207.714 46.571q100.571 0 190-37.714t149.714-104.286 78-148.857zM1170.286 304q0-66.857-39.143-127.714t-106-110.571l31.429-103.429-113.714 62.286q-85.714-21.143-124.571-21.143-96.571 0-177.714 40.286t-127.714 109.429-46.571 150.857 46.571 150.857 127.714 109.429 177.714 40.286q92 0 173.143-40.286t130-109.714 48.857-150.571z" />
<glyph unicode="&#xe606;" glyph-name="add" d="M1024 366.432c0 0-451.765 0-451.765 0s0-451.765 0-451.765c0 0-120.471 0-120.471 0s0 451.765 0 451.765c0 0-451.765 0-451.765 0s0 120.471 0 120.471c0 0 451.765 0 451.765 0s0 451.765 0 451.765c0 0 120.471 0 120.471 0s0-451.765 0-451.765c0 0 451.765 0 451.765 0s0-120.471 0-120.471z" />
<glyph unicode="&#xe607;" glyph-name="art" d="M1010.537 382.846c-38.701-109.96-129.506-122.669-194.44-122.729-22.92 0-46.381 1.717-69.391 3.343-20.6 1.536-40.779 3.012-59.723 3.012-42.616 0-66.018-8.011-78.306-26.925-4.789-12.258 14.728-61.711 25.178-88.245 13.252-33.672 25.751-65.476 27.648-91.859 0 0 0.663-9.547 0.663-9.547s-4.819-8.312-4.819-8.312c-24.847-42.978-79.48-66.68-154.022-66.68-30.268 0-62.735 3.885-93.907 11.234-164.081 38.581-286.78 121.585-354.786 240.098-56.922 99.208-69.813 206.366-37.406 309.85 45.929 146.522 167.876 248.651 258.409 291.629 56.38 26.714 120.29 43.4 195.223 50.869 0.181 0 0.361 0 0.542 0 142.758 0 386.349-59 488.328-221.274 61.741-98.424 79.36-193.355 50.808-274.462zM906.662 624.028c-87.913 139.987-311.808 192.151-432.248 192.151-65.054-6.626-122.157-21.414-171.912-45.056-79.119-37.557-185.675-126.464-225.551-253.741-27.437-87.642-16.685-175.104 31.985-259.976 60.024-104.568 165.918-175.375 314.79-210.372 72.824-17.197 148.119-9.728 173.749 18.131-3.674 16.986-12.89 40.418-21.896 63.217-22.106 56.109-42.948 109.086-19.366 145.348 31.985 49.032 86.679 55.326 130.771 55.326 20.42 0 42.135-1.536 64.271-3.132 21.504-1.566 43.46-3.223 64.843-3.223 76.92 0.060 114.899 22.739 135.379 80.926 22.317 63.398 7.198 137.517-44.815 220.401zM737.882 459.104c-26.624 0-48.188 21.775-48.188 48.64 0 26.895 21.564 48.67 48.188 48.67s48.188-21.775 48.188-48.67c0-26.865-21.564-48.64-48.188-48.64zM448.753 523.977c-44.363 0-80.324 36.292-80.324 81.077s35.96 81.077 80.324 81.077c44.363 0 80.324-36.292 80.324-81.077s-35.96-81.077-80.324-81.077zM432.7 280.717c0-26.865-21.594-48.64-48.188-48.64-26.624 0-48.188 21.775-48.188 48.64s21.564 48.64 48.188 48.64c26.594 0 48.188-21.775 48.188-48.64zM223.864 394.23c-26.594 0-48.188 21.775-48.188 48.67 0 26.865 21.594 48.64 48.188 48.64 26.624 0 48.188-21.775 48.188-48.64 0-26.895-21.564-48.67-48.188-48.67z" />
<glyph unicode="&#xe608;" glyph-name="bank" d="M453.12 226.987c-25.344 0-48.448 2.24-68.032 8-10.368 2.304-16.128 11.52-16.128 28.8 0 0 0 58.752 0 58.752s-144-8-144-8c0 0 0-185.536 0-185.536 51.84-24.256 115.2-39.168 192.448-42.624 0 0 0-133.696 0-133.696s154.368 0 154.368 0c0 0 0 145.152 0 145.152 118.72 28.864 186.688 108.352 186.688 224.704 0 55.36-21.888 102.592-44.928 129.088-11.52 13.888-28.8 26.496-50.688 39.232-21.888 12.672-39.168 21.888-54.208 27.648-13.824 5.76-33.408 12.672-59.904 21.888 0 0-66.816 21.888-66.816 21.888-12.672 4.608-24.192 12.672-35.712 23.040-11.52 11.52-17.28 25.344-17.28 41.472 0 44.928 27.648 66.816 82.944 66.816 25.344 0 46.080-2.24 61.056-6.848 10.368-3.456 16.128-12.736 16.128-28.8 0 0 0-53.12 0-53.12s141.76 10.432 141.76 10.432c0 0 0 175.168 0 175.168-39.168 19.584-92.16 33.408-159.040 41.472 0 0 0 106.048 0 106.048s-154.368 0-154.368 0c0 0 0-111.744 0-111.744-116.416-27.712-187.84-104.896-187.84-219.008 0-70.272 25.344-124.416 71.424-156.736 46.080-32.256 82.944-47.232 141.76-61.056 79.488-21.888 111.744-38.016 111.744-85.248 0-51.84-33.408-77.184-101.376-77.184z" />
<glyph unicode="&#xe609;" glyph-name="block" d="M305.591 490.813c0 0-305.591 313.417-305.591 313.417s0 6.437 0 6.437c0 70.729 57.271 128 128 128 0 0 614.327 0 614.327 0s-436.736-447.854-436.736-447.854zM896-85.333c0 0-28.672 0-28.672 0s-266.167 273.042-266.167 273.042c0 0 422.839 433.664 422.839 433.664s0-578.706 0-578.706c0-70.656-57.344-128-128-128zM670.354-85.333c0 0-335.433 0-335.433 0s167.717 172.032 167.717 172.032c0 0 167.717-172.032 167.717-172.032zM404.114 187.709c0 0-266.24-273.042-266.24-273.042s-9.874 0-9.874 0c-51.127 0-94.939 30.208-115.419 73.509 0 0 293.010 300.544 293.010 300.544s98.523-101.010 98.523-101.010zM207.067 389.803c0 0-207.067-212.407-207.067-212.407s0 424.741 0 424.741c0 0 207.067-212.334 207.067-212.334zM502.638 288.72c0 0-98.523 101.083-98.523 101.083s529.189 542.72 529.189 542.72c48.786-14.994 84.773-57.856 89.527-110.299 0 0-520.192-533.504-520.192-533.504z" />
<glyph unicode="&#xe60a;" glyph-name="block_line" d="M1024-40.085c0 0 0-45.248 0-45.248s0 0 0 0 0 0 0 0 0 0 0 0-45.248 0-45.248 0c0 0-485.504 0-485.504 0s-45.248 0-45.248 0c0 0-370.752 0-370.752 0s-45.248 0-45.248 0c0 0-32 0-32 0s0 978.752 0 978.752c0 0 0 0 0 0s0 45.248 0 45.248c0 0 0 0 0 0s0 0 0 0 45.248 0 45.248 0c0 0 978.752 0 978.752 0s0-402.752 0-402.752c0 0 0 0 0 0s0-90.496 0-90.496c0 0 0 0 0 0s0-485.504 0-485.504c0 0 0 0 0 0zM914.752-21.333c0 0-178.752 178.752-178.752 178.752s-178.752-178.752-178.752-178.752c0 0 357.504 0 357.504 0zM466.752-21.333c0 0 224 224 224 224s-162.752 162.752-162.752 162.752c0 0-386.752-386.752-386.752-386.752s325.504 0 325.504 0zM64-8.085c0 0 418.752 418.752 418.752 418.752s-418.752 418.752-418.752 418.752c0 0 0-837.504 0-837.504zM528 455.915c0 0 418.752 418.752 418.752 418.752s-837.504 0-837.504 0c0 0 418.752-418.752 418.752-418.752zM960 797.419c0 0-386.752-386.752-386.752-386.752s162.752-162.752 162.752-162.752c0 0 224 224 224 224s0 325.504 0 325.504zM960 381.419c0 0-178.752-178.752-178.752-178.752s178.752-178.752 178.752-178.752c0 0 0 357.504 0 357.504z" />
<glyph unicode="&#xe60b;" glyph-name="building" d="M944-85.333c0 0 0 732.224 0 732.224s-128 64-128 64c0 0 0-796.224 0-796.224s-64 0-64 0c0 0 0 776 0 776s-160-120-160-120c0 0 0-656 0-656s-64 0-64 0c0 0 0 608 0 608s0 80 0 80c0 0 0 204.224 0 204.224s-128 64-128 64c0 0 0-956.224 0-956.224s-64 0-64 0c0 0 0 936 0 936s-256-192-256-192c0 0 0-744 0-744s-64 0-64 0c0 0 0 736 0 736s0 0 0 0 0 40 0 40c0 0 320 240 320 240s0 8 0 8c0 0 10.656 0 10.656 0s53.344 0 53.344 0c0 0 7.552 0 7.552 0s184.448-92.224 184.448-92.224c0 0 0-3.776 0-3.776s0 0 0 0 0-192 0-192c0 0 160 120 160 120s0 8 0 8c0 0 10.656 0 10.656 0s53.344 0 53.344 0c0 0 7.552 0 7.552 0s184.448-92.224 184.448-92.224c0 0 0-3.776 0-3.776s0 0 0 0 0-768 0-768c0 0-64 0-64 0z" />
<glyph unicode="&#xe60c;" glyph-name="bus" d="M905.846 72.284c0 0-78.769 0-78.769 0s0-78.69 0-78.69c0-43.559-35.289-78.848-78.769-78.848s-78.769 35.289-78.769 78.848c0 0 0 78.69 0 78.69s-315.077 0-315.077 0c0 0 0-78.69 0-78.69 0-43.559-35.289-78.848-78.769-78.848s-78.769 35.289-78.769 78.848c0 0 0 78.69 0 78.69s-78.769 0-78.769 0c-36.155 22.843-78.769 33.792-78.769 78.769 0 0 0 630.154 0 630.154 0 70.656 84.677 157.538 157.538 157.538 0 0 630.154 0 630.154 0 72.862 0 157.538-86.882 157.538-157.538 0 0 0-630.154 0-630.154 0-46.553-40.487-56.399-78.769-78.769zM275.692 151.053c43.481 0 78.769 35.289 78.769 78.769s-35.289 78.769-78.769 78.769c-43.481 0-78.769-35.289-78.769-78.769s35.289-78.769 78.769-78.769zM827.077 781.207c0 0-630.154 0-630.154 0s0-393.846 0-393.846c0 0 630.154 0 630.154 0s0 393.846 0 393.846zM748.308 308.592c-43.481 0-78.769-35.289-78.769-78.769s35.289-78.769 78.769-78.769c43.481 0 78.769 35.289 78.769 78.769s-35.289 78.769-78.769 78.769z" />
<glyph unicode="&#xe60d;" glyph-name="camera" d="M917.333-53.333c0 0-810.667 0-810.667 0-58.912 0-106.667 47.755-106.667 106.667 0 0 0 554.667 0 554.667 0 58.912 47.755 106.667 106.667 106.667 0 0 107.744 0 107.744 0 10.709 107.797 101.632 192 212.256 192 0 0 170.667 0 170.667 0 110.613 0 201.547-84.203 212.256-192 0 0 107.744 0 107.744 0 58.912 0 106.667-47.755 106.667-106.667 0 0 0-554.667 0-554.667 0-58.912-47.755-106.667-106.667-106.667zM981.333 597.334c0 41.237-33.429 74.667-74.667 74.667 0 0-97.099 0-97.099 0s-43.051 0-43.051 0c0 0 0.011 42.667 0.011 42.667-10.517 84.171-82.176 149.333-169.195 149.333 0 0-170.667 0-170.667 0-87.019 0-158.677-65.163-169.195-149.333 0 0 0.011-42.667 0.011-42.667s-43.019 0-43.019 0c0 0-97.131 0-97.131 0-41.237 0-74.667-33.429-74.667-74.667 0 0 0-533.333 0-533.333 0-41.237 33.429-74.667 74.667-74.667 0 0 789.333 0 789.333 0 41.237 0 74.667 33.429 74.667 74.667 0 0 0 533.333 0 533.333zM512 96c-141.387 0-256 114.613-256 256s114.613 256 256 256c141.387 0 256-114.613 256-256s-114.613-256-256-256zM512 565.334c-117.824 0-213.333-95.509-213.333-213.333s95.509-213.333 213.333-213.333c117.824 0 213.333 95.509 213.333 213.333s-95.509 213.333-213.333 213.333z" />
<glyph unicode="&#xe60e;" glyph-name="clock" d="M512-85.333c-282.784 0-512 229.248-512 512 0 282.784 229.216 512 512 512 282.752 0 512-229.216 512-512 0-282.752-229.248-512-512-512zM512 874.667c-247.424 0-448-200.576-448-448s200.576-448 448-448c247.424 0 448 200.576 448 448s-200.576 448-448 448zM689.984 286.955c0 0-193.984 112-193.984 112-1.184 0.704-1.888 1.824-2.976 2.624-1.76 1.344-3.456 2.656-4.928 4.352-1.344 1.536-2.336 3.232-3.36 4.992s-1.984 3.488-2.656 5.44c-0.736 2.112-1.024 4.224-1.312 6.432-0.16 1.312-0.768 2.496-0.768 3.872 0 0 0 352 0 352 0 17.664 14.336 32 32 32s32-14.336 32-32c0 0 0-333.504 0-333.504s177.984-102.784 177.984-102.784c15.296-8.832 20.544-28.416 11.712-43.712s-28.416-20.544-43.712-11.712z" />
<glyph unicode="&#xe60f;" glyph-name="delete" d="M905.28-57.109c0 0-407.296 407.296-407.296 407.296s-407.296-407.296-407.296-407.296c0 0-90.496 90.496-90.496 90.496s407.296 407.296 407.296 407.296c0 0-407.296 407.296-407.296 407.296s90.496 90.496 90.496 90.496c0 0 407.296-407.296 407.296-407.296s407.296 407.296 407.296 407.296c0 0 90.496-90.496 90.496-90.496s-407.296-407.296-407.296-407.296c0 0 407.296-407.296 407.296-407.296s-90.496-90.496-90.496-90.496z" />
<glyph unicode="&#xe610;" glyph-name="door" d="M768-85.333c0 0-64 0-64 0s-192 0-192 0c0 0-64 0-64 0s-192 0-192 0c0 0-64 0-64 0s-160 0-160 0c0 0 0 64 0 64s64 0 64 0c0 0 0 960 0 960s832 0 832 0c0 0 0-960 0-960s64 0 64 0c0 0 0-64 0-64s-224 0-224 0zM864 874.667c0 0-704 0-704 0s0-896 0-896c0 0 704 0 704 0s0 896 0 896zM672 522.667c53.024 0 96-42.976 96-96s-42.976-96-96-96c-53.024 0-96 42.976-96 96s42.976 96 96 96z" />
<glyph unicode="&#xe611;" glyph-name="edit" d="M918.372 741.903c-4.165-7.914-9.563-15.343-16.21-21.99 0 0-48.128-48.18-48.128-48.18s-32.074 32.126-32.074 32.126c0 0-128.347 128.451-128.347 128.451s-32.091 32.108-32.091 32.108c0 0 48.128 48.163 48.128 48.163 35.441 35.476 92.906 35.476 128.347 0 0 0 64.165-64.217 64.165-64.217 28.811-28.828 34.209-72.201 16.21-106.461zM260.443 398.776c0 0-32.074 32.108-32.074 32.108s401.061 401.425 401.061 401.425c0 0 32.091-32.126 32.091-32.126s-401.078-401.408-401.078-401.408zM629.43 832.31c0 0 32.091 32.108 32.091 32.108s0 0 0 0-32.091-32.108-32.091-32.108c0 0 0 0 0 0zM180.224 190.036c35.458-35.476 141.034 12.705 176.475 48.163 0 0 31.848-31.865 31.848-31.865-14.405-14.319-16.453-14.787-63.922-32.351 0 0-160.438-64.234-160.438-64.234-48.093-16.089-80.254 16.106-64.165 64.234 0 0 64.165 160.56 64.165 160.56 16.471 48.597 17.582 50.002 31.883 64.443 0 0 32.299-32.317 32.299-32.317-35.441-35.476-83.586-141.156-48.145-176.631zM821.96 639.624c0 0-401.078-401.408-401.078-401.408s-32.091 32.108-32.091 32.108c0 0 401.078 401.408 401.078 401.408s32.091-32.108 32.091-32.108zM677.558 719.913c0 0 32.091-32.108 32.091-32.108s-336.896-337.191-336.896-337.191c0 0-32.091 32.108-32.091 32.108s336.896 337.191 336.896 337.191zM928.542-85.333c0 0-833.085 0-833.085 0s0 52.068 0 52.068c0 0 833.085 0 833.085 0s0-52.068 0-52.068z" />
<glyph unicode="&#xe612;" glyph-name="education" d="M512 369.835c0 0-322.219 150.926-322.219 150.926s265.33 76.629 265.33 76.629c6.258-7.964 46.478-56.889 56.889-56.889 18.83 0 56.889 36.466 56.889 56.889s-38.059 56.889-56.889 56.889c-14.791 0-52.167 14.279-56.889 0 0 0-320.114-106.724-320.114-106.724s35.669-7.054 35.669-7.054c0 0 0-398.222 0-398.222s-56.889 0-56.889 0c0 0 0 398.222 0 398.222s0 0 0 0-113.778 56.889-113.778 56.889c0 0 512 227.556 512 227.556s512-227.556 512-227.556c0 0-512-227.556-512-227.556zM796.444 369.835c0 0 0-170.667 0-170.667 0-102.172-190.18-170.667-284.444-170.667 0 0 0 0 0 0-94.265 0-284.444 68.494-284.444 170.667 0 0 0 170.667 0 170.667s284.444-113.778 284.444-113.778c0 0 284.444 113.778 284.444 113.778z" />
<glyph unicode="&#xe613;" glyph-name="flight" d="M1024 207.312c0 0-438.857 146.286-438.857 146.286s0-202.533 0-202.533c0-20.114 6.363 30.574 0 0 0 0 219.429-163.182 219.429-163.182s0-73.143 0-73.143c0 0-219.429 78.775-219.429 78.775-23.552-45.641-42.423-78.775-73.143-78.775s-49.591 33.134-73.143 78.775c0 0-219.429-78.775-219.429-78.775s0 73.143 0 73.143c0 0 219.429 163.182 219.429 163.182-6.363 30.574 0-20.114 0 0 0 0 0 202.533 0 202.533s-438.857-146.286-438.857-146.286c0 0 0 73.143 0 73.143s438.857 365.714 438.857 365.714c0 0 0 135.022 0 135.022 0 87.040-7.68 157.55 73.143 157.55s73.143-70.51 73.143-157.55c0 0 0-135.022 0-135.022s438.857-365.714 438.857-365.714c0 0 0-73.143 0-73.143z" />
<glyph unicode="&#xe614;" glyph-name="floor" d="M1024 34.134c0 0 0-68.267 0-68.267s-238.933 0-238.933 0c0 0-68.267 0-68.267 0s-204.8 0-204.8 0c0 0-68.267 0-68.267 0s-204.8 0-204.8 0c0 0-68.267 0-68.267 0s-170.667 0-170.667 0c0 0 0 68.267 0 68.267s170.667 0 170.667 0c0 0 0 204.8 0 204.8s0 68.267 0 68.267c0 0 68.267 0 68.267 0s204.8 0 204.8 0c0 0 0 204.8 0 204.8s0 68.267 0 68.267c0 0 68.267 0 68.267 0s204.8 0 204.8 0c0 0 0 238.933 0 238.933s0 68.267 0 68.267c0 0 68.267 0 68.267 0s238.933 0 238.933 0c0 0 0-68.267 0-68.267s-238.933 0-238.933 0c0 0 0-785.067 0-785.067s238.933 0 238.933 0zM443.733 238.934c0 0-204.8 0-204.8 0s0-204.8 0-204.8c0 0 204.8 0 204.8 0s0 204.8 0 204.8zM512 512c0 0 0-477.867 0-477.867s204.8 0 204.8 0c0 0 0 477.867 0 477.867s-204.8 0-204.8 0z" />
<glyph unicode="&#xe615;" glyph-name="food" d="M785.067 325.564c0 0 0-342.562 0-342.562 0-37.683-30.583-68.267-68.267-68.267s-68.267 30.583-68.267 68.267c0 0 0 342.562 0 342.562-117.555 4.233-204.8 27.238-204.8 152.439 0 0 0 191.966 0 191.966 0 99.191 55.228 184.934 136.533 231.492 0 0 0-440.593 0-440.593s68.267 0 68.267 0c0 0 0 468.378 0 468.378 21.914 5.598 44.51 9.489 68.267 9.489 23.689 0 46.353-3.891 68.267-9.489 0 0 0-468.378 0-468.378s68.267 0 68.267 0c0 0 0 440.593 0 440.593 81.306-46.558 136.533-132.301 136.533-231.492 0 0 0-191.966 0-191.966 0-125.201-87.245-148.207-204.8-152.439zM238.933-85.265c-37.683 0-68.267 30.583-68.267 68.267 0 0 0 273.067 0 273.067-75.435 0-136.533 129.365-136.533 204.8 0 0 0 68.267 0 68.267 0 75.435 61.099 409.6 136.533 409.6 75.366 0 136.533-61.099 136.533-136.533 0 0 0-409.6 0-409.6 0-13.995-2.731-27.17-6.622-39.868 4.028-8.67 6.622-18.159 6.622-28.399 0 0 0-341.333 0-341.333 0-37.683-30.583-68.267-68.267-68.267z" />
<glyph unicode="&#xe616;" glyph-name="hospital" d="M1024 256.086c0 0-341.333 0-341.333 0s0-341.333 0-341.333c0 0-341.333 0-341.333 0s0 341.333 0 341.333c0 0-341.333 0-341.333 0s0 341.419 0 341.419c0 0 341.333 0 341.333 0s0 341.248 0 341.248c0 0 341.333 0 341.333 0s0-341.248 0-341.248c0 0 341.333 0 341.333 0s0-341.419 0-341.419z" />
<glyph unicode="&#xe617;" glyph-name="house" d="M955.584 358.411c0 0-443.584 443.584-443.584 443.584s-443.616-443.584-443.616-443.584c0 0-68.256 68.256-68.256 68.256s511.872 511.872 511.872 511.872c0 0 511.872-511.872 511.872-511.872s-68.288-68.256-68.288-68.256zM256-21.333c0 0 512 0 512 0s0 448 0 448c0 0 64-64 64-64s0-384 0-384c0 0 0-64 0-64s-81.056 0-81.056 0c0 0-477.888 0-477.888 0s-81.056 0-81.056 0c0 0 0 64 0 64s0 384 0 384c0 0 64 64 64 64s0-448 0-448z" />
<glyph unicode="&#xe618;" glyph-name="house_icon" d="M928.064 330.731c0 0-416.064 416.064-416.064 416.064s-416.064-416.064-416.064-416.064c0 0-96 96-96 96s512.064 512 512.064 512c0 0 512.064-512 512.064-512s-96-96-96-96zM832 298.731c0 0 0-0.064 0-0.064s0-383.936 0-383.936c0 0-640 0-640 0s0 383.936 0 383.936c0 0-0.064 0.064-0.064 0.064s320.064 320 320.064 320c0 0 320-320 320-320z" />
<glyph unicode="&#xe619;" glyph-name="location" d="M512 879.417c171.236 0 310.528-141.852 310.528-316.217 0-219.989-218.396-469.504-310.528-564.992-92.132 95.488-310.528 345.003-310.528 564.992 0 174.364 139.292 316.217 310.528 316.217zM512 333.284c125.355 0 227.328 103.14 227.328 229.916s-101.973 229.916-227.328 229.916c-125.355 0-227.356-103.14-227.356-229.916s102.002-229.916 227.356-229.916zM512 938.667c-204.231 0-369.778-168.107-369.778-375.467 0-307.2 369.778-648.533 369.778-648.533s369.778 341.333 369.778 648.533c0 207.36-165.547 375.467-369.778 375.467 0 0 0 0 0 0zM512 392.534c-92.843 0-168.078 76.402-168.078 170.667s75.236 170.667 168.078 170.667c92.814 0 168.078-76.402 168.078-170.667s-75.264-170.667-168.078-170.667c0 0 0 0 0 0z" />
<glyph unicode="&#xe61a;" glyph-name="location_fill" d="M512.095-84.738c0 0-380.761 341.135-380.761 648.144 0 207.253 170.46 375.26 380.761 375.26 210.277 0 380.737-168.007 380.737-375.26 0-307.009-380.737-648.144-380.737-648.144zM512.095 733.986c-95.613 0-173.080-76.371-173.080-170.579 0-94.184 77.467-170.556 173.080-170.556 95.565 0 173.056 76.371 173.056 170.556 0 94.208-77.491 170.579-173.056 170.579z" />
<glyph unicode="&#xe61b;" glyph-name="log_out" d="M512-85.333c-282.782 0-512 229.218-512 512s229.218 512 512 512c282.782 0 512-229.218 512-512s-229.218-512-512-512zM551.385 741.744c0 21.74-17.644 39.385-39.385 39.385s-39.385-17.644-39.385-39.385c0 0 0-315.077 0-315.077 0-21.74 17.644-39.385 39.385-39.385s39.385 17.644 39.385 39.385c0 0 0 315.077 0 315.077zM762.644 677.311c-15.399 15.399-40.33 15.399-55.69 0-15.399-15.399-15.399-40.33 0-55.69 0 0 0 0 0 0 107.638-107.678 107.638-282.23 0-389.908-107.678-107.638-282.23-107.638-389.908 0-107.638 107.678-107.638 282.23 0 389.908 15.399 15.36 15.399 40.29 0 55.69-15.36 15.399-40.33 15.399-55.69 0-138.437-138.437-138.437-362.85 0-501.287s362.85-138.437 501.287 0c138.437 138.437 138.437 362.85 0 501.287z" />
<glyph unicode="&#xe61c;" glyph-name="menu" d="M930.909-85.333c0 0-372.364 0-372.364 0-51.409 0-93.091 41.681-93.091 93.091 0 0 0 139.636 0 139.636s-139.636 0-139.636 0c-51.409 0-93.091 41.681-93.091 93.091 0 0 0 139.636 0 139.636s-139.636 0-139.636 0c-51.409 0-93.091 41.681-93.091 93.091 0 0 0 372.364 0 372.364 0 51.409 41.681 93.091 93.091 93.091 0 0 372.364 0 372.364 0 51.409 0 93.091-41.681 93.091-93.091 0 0 0-139.636 0-139.636s139.636 0 139.636 0c51.409 0 93.091-41.681 93.091-93.091 0 0 0-139.636 0-139.636s139.636 0 139.636 0c51.409 0 93.091-41.681 93.091-93.091 0 0 0-372.364 0-372.364 0-51.409-41.681-93.091-93.091-93.091zM744.727 612.849c0 25.716-20.829 46.545-46.545 46.545 0 0-139.636 0-139.636 0s0-186.182 0-186.182c0-51.409-41.681-93.091-93.091-93.091 0 0-186.182 0-186.182 0s0-139.636 0-139.636c0-25.716 20.829-46.545 46.545-46.545 0 0 372.364 0 372.364 0 25.716 0 46.545 20.829 46.545 46.545 0 0 0 372.364 0 372.364zM977.455 380.122c0 25.716-20.829 46.545-46.545 46.545 0 0-139.636 0-139.636 0s0-186.182 0-186.182c0-51.409-41.681-93.091-93.091-93.091 0 0-186.182 0-186.182 0s0-139.636 0-139.636c0-25.716 20.829-46.545 46.545-46.545 0 0 372.364 0 372.364 0 25.716 0 46.545 20.829 46.545 46.545 0 0 0 372.364 0 372.364z" />
<glyph unicode="&#xe61d;" glyph-name="phone_icon" d="M354.662 622.405c-12.826-21.402-9.446-51.277 6.81-67.968 0 0 235.469-242.33 235.469-242.33 16.23-16.742 47.053-22.042 70.118-11.238 0 0 135.398 63.539 135.398 63.539s204.621-210.586 204.621-210.586c22.861-23.526 20.966-60.954-4.275-83.533 0 0-137.011-122.854-137.011-122.854-4.045-3.635-8.883-5.632-13.517-8.090-2.406-4.762-5.453-8.96-9.318-12.39-63.053-56.525-299.469 88.346-528.051 323.584s-362.752 471.782-299.674 528.307c3.84 3.456 8.371 6.118 13.491 8.090 2.842 4.275 5.274 8.73 9.318 12.39 0 0 137.011 122.829 137.011 122.829 25.242 22.63 64.205 21.888 87.066-1.638 0 0 167.859-172.774 167.859-172.774s-75.315-125.338-75.315-125.338z" />
<glyph unicode="&#xe61e;" glyph-name="refresh" d="M977.455 368.485c0-257.071-208.384-465.455-465.455-465.455s-465.455 208.384-465.455 465.455c0 182.272 105.007 339.642 257.583 416.023 0 0 24.669-92.067 24.669-92.067-112.873-63.953-189.161-184.925-189.161-323.956 0-205.638 166.726-372.364 372.364-372.364s372.364 166.726 372.364 372.364c0 163.142-105.053 301.428-251.066 351.744 0 0 64.093-91.555 64.093-91.555s-80.849-56.646-80.849-56.646c0 0-150.761 215.319-150.761 215.319s25.553 17.92 25.553 17.92c0 0-7.308 27.276-7.308 27.276 9.309 0.559 18.525 1.396 27.974 1.396 6.377 0 12.614-0.698 18.944-0.931 0 0 150.109 105.1 150.109 105.1s56.646-80.896 56.646-80.896c0 0-71.401-49.99-71.401-49.99 181.108-63.721 311.156-235.846 311.156-438.737z" />
<glyph unicode="&#xe61f;" glyph-name="right_arrow" d="M1009.126 394.309c0 0-464.768-464.768-464.768-464.768-18.33-18.33-48.051-18.33-66.381 0 0 0-70.733 70.707-70.733 70.707s350.413 350.413 350.413 350.413c0 0-700.826 0-700.826 0s-43.622 43.648-43.622 43.648c-18.355 18.33-18.355 48.051 0 66.381 0 0 43.571 43.571 43.571 43.571s700.877 0 700.877 0c0 0-350.438 350.464-350.438 350.464s70.758 70.733 70.758 70.733c18.33 18.355 48.051 18.355 66.381 0 0 0 464.768-464.768 464.768-464.768 18.33-18.33 18.33-48.051 0-66.381z" />
<glyph unicode="&#xe620;" glyph-name="room_category" d="M648.533 430.968c0 0 340.855 196.745 340.855 196.745s0-393.557 0-393.557c0 0-340.855 196.813-340.855 196.813zM580.267 549.206c0 0 0 388.164 0 388.164s338.057-192.99 338.057-192.99c0 0-338.057-195.174-338.057-195.174zM443.733 549.206c0 0-338.534 195.447-338.534 195.447s338.534 193.263 338.534 193.263c0 0 0-388.71 0-388.71zM443.733-76.049c0 0-338.534 193.331-338.534 193.331s338.534 195.447 338.534 195.447c0 0 0-388.779 0-388.779zM375.467 430.968c0 0-341.811-197.359-341.811-197.359s0 394.718 0 394.718c0 0 341.811-197.359 341.811-197.359zM580.267-75.503c0 0 0 388.233 0 388.233s338.057-195.243 338.057-195.243c0 0-338.057-192.99-338.057-192.99z" />
<glyph unicode="&#xe621;" glyph-name="rooms" d="M512-85.333c0 0-440.661 256-440.661 256s0 512 0 512c0 0 440.661 256 440.661 256s440.661-256 440.661-256c0 0 0-512 0-512s-440.661-256-440.661-256zM884.878 603.933c0 0-305.038-177.266-305.038-177.266s-33.934-59.108-33.934-59.108c0 0 0-364.43 0-364.43s338.972 201.671 338.972 201.671c0 0 0 399.132 0 399.132zM478.094 3.129c0 0 0 364.43 0 364.43s-33.934 59.108-33.934 59.108c0 0-305.038 177.266-305.038 177.266s0-399.132 0-399.132c0 0 338.972-201.671 338.972-201.671zM168.22 665.856c0 0 309.874-180.053 309.874-180.053s67.812 0 67.812 0c0 0 309.874 180.053 309.874 180.053s-343.78 204.544-343.78 204.544c0 0-343.78-204.544-343.78-204.544z" />
<glyph unicode="&#xe622;" glyph-name="search" d="M1011.999-15.414c0 0-57.917-57.917-57.917-57.917s-285.307 285.307-285.307 285.307c-70.615-57.774-160.829-92.508-259.174-92.508-226.222 0-409.6 183.378-409.6 409.6s183.378 409.6 409.6 409.6c226.222 0 409.6-183.378 409.6-409.6 0-98.345-34.734-188.559-92.508-259.174 0 0 285.307-285.307 285.307-285.307zM409.6 877.227c-192.287 0-348.16-155.873-348.16-348.16s155.873-348.16 348.16-348.16c91.587 0 174.674 35.656 236.831 93.471 0 0 17.859 17.859 17.859 17.859 57.815 62.157 93.471 145.244 93.471 236.831 0 192.287-155.873 348.16-348.16 348.16z" />
<glyph unicode="&#xe623;" glyph-name="share" d="M156.463-80.611c0 0 0 720.593 0 720.593s265.481 0 265.481 0c0 0 0-37.926 0-37.926s-227.557 0-227.557 0c0 0 0-644.741 0-644.741s644.741 0 644.741 0c0 0 0 644.741 0 644.741s-227.575 0-227.575 0c0 0 0 37.926 0 37.926s265.481 0 265.481 0c0 0 0-720.593 0-720.593s-720.574 0-720.574 0zM671.46 730.53c-3.47-3.603-8.989-3.679-12.345-0.209 0 0-123.392 123.411-123.392 123.411s0-574.028 0-574.028c0 0-37.945 0-37.945 0s0 569.079 0 569.079c0 0-114.764-116.205-114.764-116.205-3.394-3.527-8.987-3.451-12.459 0.19 0 0-14.317 15.246-14.317 15.246-3.489 3.622-3.584 9.425-0.19 12.952 0 0 159.042 161.033 159.042 161.033 3.394 3.527 8.969 3.451 12.478-0.19 0 0 14.298-15.246 14.298-15.246 1.384-1.46 2.086-3.281 2.389-5.12 0 0 143.077-143.095 143.077-143.095 3.356-3.47 3.281-9.216-0.19-12.819 0 0-15.682-15-15.682-15z" />
<glyph unicode="&#xe624;" glyph-name="shopping" d="M827.077-85.254c0 0-630.154 0-630.154 0-87.040 0-157.538 70.498-157.538 157.538 0 0 0 472.615 0 472.615 0 87.040 70.498 157.538 157.538 157.538 0 0 11.106 0 11.106 0 35.21 135.719 157.302 236.308 303.97 236.308s268.761-100.588 303.97-236.308c0 0 11.106 0 11.106 0 86.961 0 157.538-70.498 157.538-157.538 0 0 0-472.615 0-472.615 0-87.040-70.577-157.538-157.538-157.538zM118.154 505.515c0-65.221 52.933-118.075 118.154-118.075s118.154 52.854 118.154 118.075c0 47.183-28.121 87.198-68.057 106.102-6.302-21.268-10.713-43.323-10.713-66.718 0 0-78.769 0-78.769 0 0 25.285 4.175 49.388 9.925 72.783-50.649-13.312-88.694-57.344-88.694-112.167zM512 781.207c-69.711 0-131.702-30.72-174.946-78.769 0 0 349.893 0 349.893 0-43.244 48.049-105.236 78.769-174.946 78.769zM817.152 617.682c5.75-23.394 9.925-47.498 9.925-72.783 0 0-78.769 0-78.769 0 0 23.394-4.411 45.45-10.713 66.718-39.936-18.905-68.057-58.919-68.057-106.102 0-65.221 52.933-118.075 118.154-118.075s118.154 52.854 118.154 118.075c0 54.823-38.046 98.855-88.694 112.167z" />
<glyph unicode="&#xe625;" glyph-name="size" d="M955.733-85.333c0 0 0 34.133 0 34.133s-682.667 0-682.667 0c0 0 0-34.133 0-34.133s-68.267 0-68.267 0c0 0 0 136.533 0 136.533s68.267 0 68.267 0c0 0 0-34.133 0-34.133s682.667 0 682.667 0c0 0 0 34.133 0 34.133s68.267 0 68.267 0c0 0 0-136.533 0-136.533s-68.267 0-68.267 0zM853.333 119.467c0 0 170.667 170.667 170.667 170.667s0-102.4 0-102.4c0 0-68.267-68.267-68.267-68.267s-102.4 0-102.4 0zM648.533 119.467c0 0 375.467 375.467 375.467 375.467s0-102.4 0-102.4c0 0-273.067-273.067-273.067-273.067s-102.4 0-102.4 0zM443.733 119.467c0 0 580.267 580.267 580.267 580.267s0-102.4 0-102.4c0 0-477.867-477.867-477.867-477.867s-102.4 0-102.4 0zM238.933 119.467c0 0 785.067 785.067 785.067 785.067s0-102.4 0-102.4c0 0-682.667-682.667-682.667-682.667s-102.4 0-102.4 0zM204.8 290.134c0 0 648.533 648.533 648.533 648.533s102.4 0 102.4 0c0 0-750.933-750.933-750.933-750.933s0 102.4 0 102.4zM204.8 494.934c0 0 443.733 443.733 443.733 443.733s102.4 0 102.4 0c0 0-546.133-546.133-546.133-546.133s0 102.4 0 102.4zM204.8 699.734c0 0 238.933 238.933 238.933 238.933s102.4 0 102.4 0c0 0-341.333-341.333-341.333-341.333s0 102.4 0 102.4zM204.8 904.534c0 0 34.133 34.133 34.133 34.133s102.4 0 102.4 0c0 0-136.533-136.533-136.533-136.533s0 102.4 0 102.4zM0 187.734c0 0 34.133 0 34.133 0s0 682.667 0 682.667c0 0-34.133 0-34.133 0s0 68.267 0 68.267c0 0 136.533 0 136.533 0s0-68.267 0-68.267c0 0-34.133 0-34.133 0s0-682.667 0-682.667c0 0 34.133 0 34.133 0s0-68.267 0-68.267c0 0-136.533 0-136.533 0s0 68.267 0 68.267z" />
<glyph unicode="&#xe626;" glyph-name="subway" d="M877.714 134.169c0 0 146.286-219.429 146.286-219.429s-146.286 0-146.286 0c0 0-146.286 219.429-146.286 219.429s-438.857 0-438.857 0c0 0-146.286-219.429-146.286-219.429s-146.286 0-146.286 0c0 0 146.286 219.429 146.286 219.429-33.573 21.211-73.143 31.378-73.143 73.143 0 0 0 585.143 0 585.143 0 65.682 78.629 146.286 146.286 146.286 0 0 585.143 0 585.143 0 67.657 0 146.286-80.603 146.286-146.286 0 0 0-585.143 0-585.143 0-43.227-37.595-52.37-73.143-73.143zM512 207.312c33.792 0 73.143 40.302 73.143 73.143s-39.351 73.143-73.143 73.143c-33.792 0-73.143-40.302-73.143-73.143s39.351-73.143 73.143-73.143zM804.571 792.454c0 0-585.143 0-585.143 0s0-365.714 0-365.714c0 0 585.143 0 585.143 0s0 365.714 0 365.714z" />
<glyph unicode="&#xe627;" glyph-name="tag_icon" d="M368.713-60.464c0 0-346.697 345.819-346.697 345.819-31.89 31.817-31.89 83.456 0 115.273 0 0 462.263 461.093 462.263 461.093s77.678 77.605 101.522 77.605c0 0 374.711 0 374.711 0 34.45 0 62.464-27.867 62.464-62.245 0 0 0-373.76 0-373.76 0-24.722-76.434-102.693-76.434-102.693s-462.263-461.093-462.263-461.093c-31.963-31.817-83.675-31.817-115.566 0zM773.193 688.811c-31.963 31.817-83.675 31.817-115.566 0-31.963-31.817-31.963-83.456 0-115.273 31.89-31.817 83.602-31.817 115.566 0 31.89 31.817 31.89 83.456 0 115.273z" />
<glyph unicode="&#xe628;" glyph-name="tag_line" d="M999.083 412.809c0 0-497.971-498.142-497.971-498.142s-501.111 501.316-501.111 501.316c0 0 501.111 501.316 501.111 501.316s0.102-0.102 0.102-0.102c13.141 13.244 31.334 21.47 51.439 21.47 0 0 398.848 0 398.848 0 40.038 0 72.499-32.461 72.499-72.533 0 0 0-398.985 0-398.985 0-21.743-9.762-41.028-24.917-54.34zM951.501 867.533c0 0-398.848 0-398.848 0s-452.062-451.584-452.062-451.584c0 0 400.521-400.691 400.521-400.691s447.727 447.863 447.727 447.863c0 0 4.096 403.012 4.096 403.012s-1.434 1.399-1.434 1.399zM682.667 494.934c-56.559 0-102.4 45.841-102.4 102.4s45.841 102.4 102.4 102.4c56.559 0 102.4-45.841 102.4-102.4s-45.841-102.4-102.4-102.4z" />
<glyph unicode="&#xe629;" glyph-name="time" d="M512-85.333c-282.77 0-512 229.23-512 512s229.23 512 512 512c282.77 0 512-229.23 512-512s-229.23-512-512-512zM703.561 308.176c0 0-118.418 141.166-118.418 141.166s0 269.897 0 269.897c0 40.375-32.768 73.143-73.143 73.143s-73.143-32.768-73.143-73.143c0 0 0-265.362 0-265.362-8.558-23.771-5.778-50.907 11.63-71.68 0 0 141.019-168.082 141.019-168.082 25.966-30.939 72.119-34.962 103.058-8.997s34.962 72.119 8.997 103.058z" />
<glyph unicode="&#xe62a;" glyph-name="track_location" d="M928.218 407.704c-9.69-215.211-182.082-387.583-397.255-397.293 0 0 0-95.743 0-95.743s-37.926 0-37.926 0c0 0 0 95.743 0 95.743-215.173 9.709-387.565 182.082-397.274 397.293 0 0-95.763 0-95.763 0s0 37.926 0 37.926c0 0 95.763 0 95.763 0 9.709 215.211 182.101 387.583 397.274 397.293 0 0 0 95.743 0 95.743s37.926 0 37.926 0c0 0 0-95.743 0-95.743 215.173-9.709 387.565-182.082 397.255-397.293 0 0 95.782 0 95.782 0s0-37.926 0-37.926c0 0-95.782 0-95.782 0zM871.329 445.63c-9.576 183.789-156.596 330.809-340.366 340.404 0 0 0-74.923 0-74.923s-37.926 0-37.926 0c0 0 0 74.923 0 74.923-183.77-9.595-330.79-156.615-340.385-340.404 0 0 74.904 0 74.904 0s0-37.926 0-37.926c0 0-74.904 0-74.904 0 9.595-183.789 156.615-330.809 340.385-340.404 0 0 0 74.923 0 74.923s37.926 0 37.926 0c0 0 0-74.923 0-74.923 183.77 9.595 330.79 156.615 340.366 340.404 0 0-74.885 0-74.885 0s0 37.926 0 37.926c0 0 74.885 0 74.885 0zM512 199.111c-125.668 0-227.556 101.887-227.556 227.556s101.889 227.556 227.556 227.556c125.668 0 227.556-101.889 227.556-227.556s-101.889-227.556-227.556-227.556z" />
<glyph unicode="&#xe62b;" glyph-name="train" d="M780.698-46.216c0 0-18.227 99.601-18.227 99.601s-543.607 0-543.607 0c0 0-18.227-99.601-18.227-99.601s-201.455 36.796-201.455 36.796c0 0 167.117 913.408 167.117 913.408s201.455-36.864 201.455-36.864c0 0-23.962-131.072-23.962-131.072s293.751 0 293.751 0c0 0-23.962 131.072-23.962 131.072s201.455 36.864 201.455 36.864c0 0 167.117-913.408 167.117-913.408s-201.455-36.796-201.455-36.796zM243.849 189.918c0 0 493.636 0 493.636 0s-24.986 136.602-24.986 136.602c0 0-443.665 0-443.665 0s-24.986-136.602-24.986-136.602zM318.805 599.586c0 0-24.986-136.533-24.986-136.533s393.694 0 393.694 0c0 0-26.214 143.155-26.214 143.155s0-6.622 0-6.622c0 0-342.494 0-342.494 0z" />
<glyph unicode="&#xe62c;" glyph-name="circle_close_delete" d="M512-64v0c-282.77 0-512 229.23-512 512s229.23 512 512 512c282.77 0 512-229.23 512-512s-229.23-512-512-512zM512-17.455c257.063 0 465.455 208.391 465.455 465.455s-208.391 465.455-465.455 465.455c-257.063 0-465.455-208.391-465.455-465.455s208.391-465.455 465.455-465.455zM314.524 217.612l-32.913 32.913 197.476 197.476-197.476 197.476 32.913 32.913 197.476-197.476 197.476 197.476 32.913-32.913-197.476-197.476 197.476-197.476-32.913-32.913-197.476 197.476-197.476-197.476z" />
<glyph unicode="&#xe62d;" glyph-name="nav-arrow-right" horiz-adv-x="591" d="M79.518 937.157l-80.896-80.896 420.667-420.706-420.667-420.667 80.896-80.935 501.602 501.602z" />
<glyph unicode="&#xe62e;" glyph-name="calc" d="M841.143-85.315h-658.286c-60.599 0-109.714 49.115-109.714 109.714v804.571c0 60.581 49.115 109.714 109.714 109.714h658.286c60.599 0 109.714-49.134 109.714-109.714v-804.571c0-60.599-49.115-109.714-109.714-109.714zM512 24.4c0-20.206 16.366-36.571 36.571-36.571h73.143c20.206 0 36.571 16.366 36.571 36.571v36.571c0 20.187-16.366 36.571-36.571 36.571h-73.143c-20.206 0-36.571-16.384-36.571-36.571v-36.571zM512 170.667c0-20.187 16.366-36.553 36.571-36.553h73.143c20.206 0 36.571 16.366 36.571 36.553v36.59c0 20.206-16.366 36.571-36.571 36.571h-73.143c-20.206 0-36.571-16.366-36.571-36.571v-36.59zM512 316.971c0-20.206 16.366-36.571 36.571-36.571h73.143c20.206 0 36.571 16.366 36.571 36.571v36.571c0 20.206-16.366 36.571-36.571 36.571h-73.143c-20.206 0-36.571-16.366-36.571-36.571v-36.571zM329.143 24.4c0-20.206 16.366-36.571 36.571-36.571h73.143c20.206 0 36.571 16.366 36.571 36.571v36.571c0 20.187-16.366 36.571-36.571 36.571h-73.143c-20.206 0-36.571-16.384-36.571-36.571v-36.571zM329.143 170.667c0-20.187 16.366-36.553 36.571-36.553h73.143c20.206 0 36.571 16.366 36.571 36.553v36.59c0 20.206-16.366 36.571-36.571 36.571h-73.143c-20.206 0-36.571-16.366-36.571-36.571v-36.59zM329.143 316.971c0-20.206 16.366-36.571 36.571-36.571h73.143c20.206 0 36.571 16.366 36.571 36.571v36.571c0 20.206-16.366 36.571-36.571 36.571h-73.143c-20.206 0-36.571-16.366-36.571-36.571v-36.571zM146.286 24.4c0-20.206 16.366-36.571 36.571-36.571h73.143c20.206 0 36.571 16.366 36.571 36.571v36.571c0 20.187-16.366 36.571-36.571 36.571h-73.143c-20.206 0-36.571-16.384-36.571-36.571v-36.571zM146.286 170.667c0-20.187 16.366-36.553 36.571-36.553h73.143c20.206 0 36.571 16.366 36.571 36.553v36.59c0 20.206-16.366 36.571-36.571 36.571h-73.143c-20.206 0-36.571-16.366-36.571-36.571v-36.59zM146.286 316.971c0-20.206 16.366-36.571 36.571-36.571h73.143c20.206 0 36.571 16.366 36.571 36.571v36.571c0 20.206-16.366 36.571-36.571 36.571h-73.143c-20.206 0-36.571-16.366-36.571-36.571v-36.571zM877.714 828.971c0 20.206-16.366 36.571-36.571 36.571h-658.286c-20.206 0-36.571-16.366-36.571-36.571v-292.571c0-20.206 16.366-36.571 36.571-36.571h658.286c20.206 0 36.571 16.366 36.571 36.571v292.571zM877.714 353.542c0 20.206-16.366 36.571-36.571 36.571h-109.714c-20.206 0-36.571-16.366-36.571-36.571v-36.571c0-20.206 16.366-36.571 36.571-36.571h109.714c20.206 0 36.571 16.366 36.571 36.571v36.571zM877.714 207.257c0 20.206-16.366 36.571-36.571 36.571h-109.714c-20.206 0-36.571-16.366-36.571-36.571v-182.857c0-20.206 16.366-36.571 36.571-36.571h109.714c20.206 0 36.571 16.366 36.571 36.571v182.857zM789.888 606.928c-5.815-8.448-13.019-14.958-21.65-19.584-8.613-4.608-18.743-6.912-30.354-6.912-10.002 0-19.090 1.883-27.282 5.632-8.192 3.767-15.195 9.545-21.010 17.353-5.797 7.808-10.277 17.774-13.422 29.861-3.145 12.105-4.718 26.423-4.718 43.008 0 14.281 1.463 27.319 4.37 39.15 2.889 11.794 7.223 21.906 13.001 30.354 5.76 8.411 12.965 14.939 21.632 19.566 8.667 4.608 18.761 6.93 30.281 6.93 10.002 0 19.109-1.883 27.301-5.65 8.174-3.767 15.177-9.582 20.992-17.426 5.815-7.863 10.277-17.847 13.422-29.915 3.145-12.105 4.718-26.441 4.718-43.008 0-14.299-1.426-27.319-4.279-39.077s-7.205-21.87-13.001-30.281zM770.743 731.417c-2.194 4.005-4.809 7.461-7.863 10.368-3.035 2.889-6.528 5.157-10.423 6.784-3.913 1.609-8.283 2.432-13.147 2.432-6.473 0-12.361-1.591-17.646-4.718-5.285-3.145-9.783-7.845-13.495-14.062-3.712-6.254-6.565-13.97-8.576-23.15-1.993-9.198-2.999-19.84-2.999-31.945 0-2.944 0.018-5.906 0.073-8.85s0.219-5.797 0.512-8.576l78.994 58.441c-1.426 4.846-3.237 9.289-5.431 13.275zM781.678 685.062c-0.238 3.2-0.512 6.309-0.786 9.362l-79.013-58.715c1.426-4.955 3.237-9.527 5.431-13.714s4.827-7.79 7.936-10.789c3.090-2.999 6.619-5.339 10.569-7.003s8.448-2.487 13.495-2.487c6.473 0 12.361 1.573 17.646 4.718 5.285 3.127 9.783 7.79 13.495 13.989 3.712 6.181 6.583 13.879 8.576 23.077 1.993 9.179 2.999 19.822 2.999 31.927 0 3.237-0.11 6.455-0.347 9.637z" />
<glyph unicode="&#xe62f;" glyph-name="calender_filter" d="M0-21.333v768h192v128h128v-128h384v128h128v-128h192v-768h-1024zM320 554.667h-128v-128h128v128zM320 298.667h-128v-128h128v128zM576 554.667h-128v-128h128v128zM576 298.667h-128v-128h128v128zM832 554.667h-128v-128h128v128zM832 298.667h-128v-128h128v128z" />
<glyph unicode="&#xe630;" glyph-name="calender_homepage" d="M921.6-21.333h-819.2c-56.55 0-102.4 45.85-102.4 102.4v563.2c0 56.55 45.85 102.4 102.4 102.4h76.8v76.8c0 28.288 22.912 51.2 51.2 51.2h51.2c28.288 0 51.2-22.912 51.2-51.2v-76.8h358.4v76.8c0 28.288 22.912 51.2 51.2 51.2h51.2c28.288 0 51.2-22.912 51.2-51.2v-76.8h76.8c56.55 0 102.4-45.85 102.4-102.4v-563.2c0-56.55-45.85-102.4-102.4-102.4zM947.2 618.667c0 28.288-22.912 51.2-51.2 51.2h-768c-28.288 0-51.2-22.912-51.2-51.2v-512c0-28.262 22.912-51.2 51.2-51.2h768c28.288 0 51.2 22.938 51.2 51.2v512zM819.2 209.067c-28.288 0-51.2 22.912-51.2 51.2s22.912 51.2 51.2 51.2c28.288 0 51.2-22.912 51.2-51.2s-22.912-51.2-51.2-51.2zM819.2 413.867c-28.288 0-51.2 22.938-51.2 51.2 0 28.288 22.912 51.2 51.2 51.2s51.2-22.912 51.2-51.2c0-28.262-22.912-51.2-51.2-51.2zM614.4 209.067c-28.288 0-51.2 22.912-51.2 51.2s22.912 51.2 51.2 51.2c28.288 0 51.2-22.912 51.2-51.2s-22.912-51.2-51.2-51.2zM614.4 413.867c-28.288 0-51.2 22.938-51.2 51.2 0 28.288 22.912 51.2 51.2 51.2s51.2-22.912 51.2-51.2c0-28.262-22.912-51.2-51.2-51.2zM409.6 209.067c-28.288 0-51.2 22.912-51.2 51.2s22.912 51.2 51.2 51.2c28.288 0 51.2-22.912 51.2-51.2s-22.912-51.2-51.2-51.2zM409.6 413.867c-28.288 0-51.2 22.938-51.2 51.2 0 28.288 22.912 51.2 51.2 51.2s51.2-22.912 51.2-51.2c0-28.262-22.912-51.2-51.2-51.2zM204.8 209.067c-28.288 0-51.2 22.912-51.2 51.2s22.912 51.2 51.2 51.2c28.262 0 51.2-22.912 51.2-51.2s-22.938-51.2-51.2-51.2zM204.8 413.867c-28.288 0-51.2 22.938-51.2 51.2 0 28.288 22.912 51.2 51.2 51.2 28.262 0 51.2-22.912 51.2-51.2 0-28.262-22.938-51.2-51.2-51.2z" />
<glyph unicode="&#xe631;" glyph-name="category_a" d="M512-43.295v0c0 0 0 0 0 0v0 0c-236.169 73.577-404.914 267.974-404.914 496.267v296.906c165.623 35.645 305.057 86.261 404.809 146.905h0.21c99.752-60.646 239.173-111.26 404.809-146.905v-296.906c0-228.293-168.744-422.69-404.914-496.267zM540.331 576.367v30.107h-42.725v-30.957c-47.322-7.524-90.884-38.48-90.884-97.454 0-50.627 36.443-71.121 76.647-84.497 41.89-13.389 52.352-17.163 52.352-28.030 0-10.044-10.88-13.389-22.192-13.389-24.295 0-49.844 13.389-63.663 28.030l-60.736-64.42c25.967-22.165 64.917-38.48 103.88-41.419v-31.375h42.712v31.793c52.364 4.179 100.536 38.493 100.536 100.823 0 59.392-57.38 77.796-100.105 91.183-20.532 6.688-29.324 9.209-29.324 17.986 0 9.209 9.626 12.971 24.295 12.971 15.491 0 37.696-8.372 51.097-24.687l61.992 61.494c-28.488 25.092-67.437 39.733-103.88 41.837z" />
<glyph unicode="&#xe632;" glyph-name="category_b" d="M512 383.866l-321.783 131.154 295.955 54.847c6.247-7.468 15.44-12.297 25.826-12.297 18.817 0 34.082 15.551 34.082 34.742s-15.264 34.757-34.082 34.757c-14.767 0-27.223-9.625-31.961-23.022l-344.529-63.852h18.582v-213.299c10.139-6.023 17.035-17.112 17.035-29.929v-138.999c0-19.18-15.253-34.742-34.082-34.742s-34.082 15.564-34.082 34.742v138.999c0 12.818 6.897 23.905 17.034 29.929v213.299h8.445l-127.874 52.117 511.438 208.461 511.424-208.461-511.424-208.449zM767.649 418.572v-208.474c0-95.95-129.571-157.47-223.699-157.47h-63.912c-94.129 0-223.688 61.517-223.688 157.47v208.474l255.649-104.204 255.649 104.204z" />
<glyph unicode="&#xe633;" glyph-name="category_c" d="M570.599 393.236l-69.153-69.167c-57.449-57.462-96.675-91.398-149.83-126.81l-11.523-126.81-23.059-23.046c0 0-49.288 96.119-50.22 96.327-70.796-32.927-70.796-32.927-37.959 37.971-0.362-0.362-96.222 50.141-96.222 50.141l23.046 23.059 126.784 11.523c35.203 52.858 68.817 91.876 126.771 149.856l69.167 69.179-380.35 195.963 34.583 57.643 507.12-92.213 115.26 115.273c66.399 66.424 135.888 94.632 161.354 69.167s-1.306-93.533-69.153-161.393l-115.26-115.273 92.214-507.223-57.629-34.583-195.937 380.415z" />
<glyph unicode="&#xe634;" glyph-name="category_d" d="M917.447 366.667l-405.447 407.052-405.447-407.052-45.064 45.236 450.51 452.3 450.51-452.3-45.064-45.236zM512 653.121l270.377-271.385v-392.088h-165.236v165.885c0 58.304-47.077 90.125-105.143 90.125-58.078 0-105.156-31.821-105.156-90.125v-165.885h-165.221v392.088h0.066l270.311 271.385z" />
<glyph unicode="&#xe635;" glyph-name="category_e" d="M804.244 30.014h-688.859v793.144h41.744v-751.399h83.501v271.334h146.128v-271.334h62.616v396.578h146.128v-396.578h62.616v751.399h146.128v-751.399h104.372v-41.744h-104.372z" />
<glyph unicode="&#xe636;" glyph-name="category_f" d="M915.547 497.968v29.623l38.498-10.32-19.302-72.017-19.196 52.713zM867.165 660.494l29.251 2.557 12.957-148.139-12.149 33.385-30.059 112.197zM948.348 407.841l14.042-8.107-6.796-11.777-7.247 19.885zM945.010 369.634l-24.429-42.301 5.087 1.351 2.914-33.174 11.459-11.459-9.619-9.619 1.18-13.552-16.149-1.418-41.665-41.651-4.941-18.468 4.969 4.173 4.596-7.948 10.095-17.474-30.006-17.314-8.956-33.465-33.465 8.968-37.227-21.502 15.699-5.71-34.034-58.953-268.126 154.789 19.408 7.062 259.528-94.445 27.781 23.304-278.075 74.507 26.364 9.592h315.937l22.362 31.941-6.107-0.53-0.476-0.821 0.291 0.794-323.529-28.297 16.679 6.068 331.040 88.707 13.341 36.63-715.496-260.39-75.062 206.244 30.059-112.197-29.251-2.569-12.97 148.139-6.16 16.944v-29.61l-38.498 10.307 19.302 72.029-13.619 37.399-14.029 8.107 6.796 11.777-4.65 12.784 15.236 5.551 24.429 42.301-5.087-1.364-2.914 33.174-11.46 11.473 9.619 9.604-1.18 13.552 16.149 1.418 41.665 41.665 4.941 18.468-4.969-4.186-14.691 25.436 29.993 17.314 8.968 33.451 33.451-8.956 37.24 21.489-15.712 5.723 34.047 58.953 268.126-154.789 10.294 3.749-220.592 154.432 48.144 48.129 194.559-194.533 258.534 94.101 138.097-379.355-15.236-5.551zM106.664 494.152l344.368 125.326-331.040-88.695-13.327-36.63zM160.267 628.633l-22.362-31.941 6.107 0.542 0.476 0.821-0.291-0.808 323.529 28.312 8.478 3.074h-315.937zM372.18 692.409l-119.907 43.639-27.781-23.316 278.075-74.507 9.234 3.378-139.621 50.806zM612.022 463.258c-20.057 55.085-81.184 83.423-136.534 63.285-55.35-20.15-83.966-81.145-63.909-136.229 20.044-55.085 81.17-83.423 136.52-63.272 55.363 20.137 83.966 81.145 63.922 136.216zM544.325 373.516l6.293-17.289-18.826-6.849-6.425 17.632c-16.281-3.749-33.663-3.351-48.792 1.033l6.888 25.052c12.374-3.603 23.223-5.192 34.671-3.405l-10.108 27.781c-28.563-2.69-44.858 2.066-52.422 22.84l-0.133 0.357c-6.996 19.21 3.59 37.492 25.582 48.077l-3.684 10.134 18.838 6.849 3.868-10.652c13.446 3.114 25.966 2.53 38.34-0.491l-4.703-24.852c-8.956 2.081-18.084 2.914-26.204 2.132l9.658-26.55c30.14 2.862 45.798-3.511 52.911-23.065l0.133-0.357c7.114-19.554-3.881-37.81-25.887-48.382zM489.903 467.246c-8.492-4.279-10.586-9.791-8.559-15.381l0.133-0.344c2.027-5.59 5.842-8.161 17.077-8.029l-8.651 23.753zM544.272 410.876l-0.133 0.357c-2.093 5.763-6.505 8.307-17.566 8.24l8.903-24.442c8.068 4.319 11.089 9.565 8.798 15.844zM523.712 726.628l-97.917 116.662 58.953 34.034 117.179-202.932-26.337-9.592-51.878 61.829zM486.921 142.405l110.886-132.135-58.966-34.034-10.083 17.488-107.097 185.459 26.351 9.579 38.909-46.356zM459.988 193.118l22.097 8.041 220.592-154.432-48.129-48.129-194.559 194.52z" />
<glyph unicode="&#xe637;" glyph-name="cellphone" d="M736-85.333h-448c-53.024 0-96 42.976-96 96v832c0 53.024 42.976 96 96 96h448c53.024 0 96-42.976 96-96v-832c0-53.024-42.976-96-96-96zM512-21.333c35.36 0 64 28.64 64 64s-28.64 64-64 64c-35.36 0-64-28.64-64-64s28.64-64 64-64zM736 842.667h-448v-672h448v672z" />
<glyph unicode="&#xe638;" glyph-name="coin_filter" d="M736 106.667c-91.008 0-171.2 19.2-224 48.512-52.8-29.312-132.992-48.512-224-48.512-159.040 0-288 57.344-288 128.064 0 23.424 15.232 45.056 39.936 64 49.92-38.144 141.76-64 248.064-64 62.976 0 119.488 9.856 166.592 25.152 6.592 13.824 17.792 26.944 33.344 38.848 6.72-5.12 15.936-9.344 24.064-14.016 8.128 4.672 17.344 8.896 24.064 14.016 15.552-11.904 26.752-25.024 33.344-38.848 47.104-15.296 103.616-25.152 166.592-25.152 106.304 0 198.144 25.856 248.064 64 24.704-18.944 39.936-40.576 39.936-64 0-70.72-128.96-128.064-288-128.064zM736 298.731c-91.008 0-171.2 19.136-224 48.448-52.8-29.312-132.992-48.448-224-48.448-159.040 0-288 57.28-288 128 0 23.424 15.232 45.056 39.936 64 49.92-38.144 141.76-64 248.064-64 62.976 0 119.488 9.856 166.592 25.152 6.592 13.824 17.792 26.944 33.344 38.848 6.72-5.12 15.936-9.344 24.064-14.016 8.128 4.672 17.344 8.896 24.064 14.016 15.552-11.904 26.752-25.024 33.344-38.848 47.104-15.296 103.616-25.152 166.592-25.152 106.304 0 198.144 25.856 248.064 64 24.704-18.944 39.936-40.576 39.936-64 0-70.72-128.96-128-288-128zM736 490.731c-91.008 0-171.2 19.136-224 48.448-52.8-29.312-132.992-48.448-224-48.448-159.040 0-288 57.28-288 128 0 70.656 128.96 128 288 128 139.904 0 256.32-44.352 282.368-103.168 46.912-15.168 103.104-24.832 165.632-24.832 106.304 0 198.144 25.856 248.064 64 24.704-18.944 39.936-40.576 39.936-64 0-70.72-128.96-128-288-128zM736 682.731c-159.040 0-288 57.28-288 128 0 70.656 128.96 128 288 128s288-57.344 288-128c0-70.72-128.96-128-288-128zM39.936 106.667c49.92-38.080 141.76-64 248.064-64 62.976 0 119.488 9.92 166.592 25.216 6.592 13.824 17.792 26.944 33.344 38.784 6.72-5.056 15.936-9.28 24.064-13.952 8.128 4.672 17.344 8.896 24.064 13.952 15.552-11.84 26.752-24.96 33.344-38.784 47.104-15.296 103.616-25.216 166.592-25.216 106.304 0 198.144 25.92 248.064 64 24.704-18.816 39.936-40.512 39.936-64 0-70.656-128.96-127.936-288-127.936-91.008 0-171.2 19.136-224 48.448-52.8-29.312-132.992-48.448-224-48.448-159.040 0-288 57.28-288 127.936 0 23.488 15.232 45.184 39.936 64z" />
<glyph unicode="&#xe639;" glyph-name="crowdfunding" d="M316.416 537.094c0 68.079-38.152 123.21-85.19 123.21s-85.19-55.131-85.19-123.21c0-41.852 14.468-78.782 36.501-101.013v-34.519c0 0-133.847-36.203-182.536-98.568 0-61.605 0-61.605 0-61.605h128.066c60.152 60.779 170.579 104.646 239.616 127.604-45.651 21.108-87.767 32.57-87.767 32.57v34.519c22.033 22.231 36.501 59.161 36.501 101.013zM512 756.99c-77.295 0-139.958-86.974-139.958-194.296 0-65.998 23.75-124.201 59.987-159.348v-54.404c0 0-219.929-57.080-299.9-155.45 0-97.148 0-97.148 0-97.148h759.742c0 0 0 0 0 97.148-81.226 98.37-299.9 155.45-299.9 155.45v54.404c36.236 35.146 59.987 93.349 59.987 159.348 0 107.322-62.662 194.296-139.958 194.296zM1024 302.994c-49.449 62.365-182.536 98.568-182.536 98.568v34.519c22.033 22.231 36.501 59.161 36.501 101.013 0 68.079-38.152 123.21-85.19 123.21s-85.19-55.131-85.19-123.21c0-41.852 14.468-78.782 36.501-101.013v-34.519c0 0-42.347-11.462-88.064-32.57 68.773-22.924 178.936-66.791 239.748-127.604h128.231c0 0 0 0 0 61.605z" />
<glyph unicode="&#xe63a;" glyph-name="faveractive" d="M511.976-8.752c-221.964 104.692-562.737 375.589-463.238 707.048 41.204 88.040 57.173 106.057 146.286 146.286 153.551 61.196 227.742-48.494 316.952-121.905 89.21 73.411 163.401 183.101 316.952 121.905 89.088-40.229 105.082-58.246 146.286-146.286 99.474-331.459-241.298-602.356-463.238-707.048z" />
<glyph unicode="&#xe63b;" glyph-name="faver" d="M280.722 804.011c54.272 0 96.549-39.229 145.481-84.651 15.067-13.995 30.671-28.477 47.104-42.13 11.191-9.338 24.893-13.995 38.595-13.995s27.38 4.657 38.595 13.995c16.433 13.653 32.012 28.111 47.080 42.106 48.957 45.422 91.234 84.651 145.506 84.675 18.749 0 38.717-4.315 61.026-13.166 70.924-32.402 78.604-39.692 112.518-112.591 81.262-285.623-215.235-523.508-404.724-621.812-189.489 98.304-485.986 336.189-404.724 621.812 33.89 72.899 41.594 80.189 112.518 112.591 22.309 8.85 42.277 13.166 61.026 13.166zM743.083 865.378c-99.157 0-160.451-81.944-231.18-140.751-70.754 58.831-131.998 140.751-231.18 140.751-25.478 0-53.443-5.388-84.724-17.993-88.795-40.497-104.716-58.661-145.798-147.31-99.133-333.824 240.494-606.647 461.702-712.046 221.208 105.399 560.835 378.222 461.678 712.046-41.058 88.649-56.978 106.813-145.798 147.31-31.281 12.605-59.221 17.993-84.699 17.993v0z" />
<glyph unicode="&#xe63c;" glyph-name="files_homepage" d="M832-85.333h-640c-56.55 0-102.4 45.85-102.4 102.4v819.2c0 56.576 45.85 102.4 102.4 102.4h384l358.4-358.4v-563.2c0-56.55-45.85-102.4-102.4-102.4zM857.6 580.267h-179.2c-56.55 0-102.4 45.85-102.4 102.4v179.2h-358.4c-28.288 0-51.2-22.912-51.2-51.2v-768c0-28.262 22.912-51.2 51.2-51.2h588.8c28.262 0 51.2 22.938 51.2 51.2v537.6zM268.8 196.267h486.4v-25.6h-486.4v25.6zM268.8 273.067h486.4v-25.6h-486.4v25.6zM268.8 426.667h486.4v-25.6h-486.4v25.6zM268.8 503.467h486.4v-25.6h-486.4v25.6zM268.8 580.267h256v-25.6h-256v25.6zM268.8 657.067h256v-25.6h-256v25.6zM268.8 759.467h204.8v-51.2h-204.8v51.2zM524.8 324.267h-256v25.6h256v-25.6zM524.8 93.867h-256v25.6h256v-25.6z" />
<glyph unicode="&#xe63d;" glyph-name="gotop" d="M512 818.722l512-784.555h-1024l512 784.555z" />
<glyph unicode="&#xe63e;" glyph-name="house_account" d="M219.429-12.154c0-40.411 32.731-73.179 73.143-73.179h146.286v182.894c0 40.375 32.731 73.143 73.143 73.143 40.375 0 73.143-32.768 73.143-73.143v-182.894h146.286c40.375 0 73.143 32.768 73.143 73.179v329.143h-0.219l-292.352 292.352-292.571-292.352v-329.143zM512 938.338l-511.671-511.634 91.429-91.465 420.242 420.242 420.206-420.242 91.429 91.465-511.634 511.634z" />
<glyph unicode="&#xe63f;" glyph-name="house_homepage" d="M994.697 358.045l-4.197-4.197-409.878 409.878c-38.111 38.111-99.889 38.111-138.025 0l-409.854-409.878-4.197 4.197c-38.111 38.111-38.111 99.914 0 138.025l414.050 414.050c38.136 38.111 99.914 38.111 138.025 0l414.075-414.050c38.111-38.111 38.111-99.914 0-138.025zM194.435 12.263c0-26.936 21.837-48.798 48.798-48.798h121.995v121.995c0 80.858 65.536 146.394 146.394 146.394s146.394-65.536 146.394-146.394v-121.995h121.995c26.936 0 48.798 21.861 48.798 48.798v356.908l48.798-48.798v-308.11c0-53.897-43.699-97.596-97.596-97.596h-170.793v170.793c0 53.897-43.699 97.596-97.596 97.596s-97.596-43.699-97.596-97.596v-170.793h-170.793c-53.897 0-97.596 43.699-97.596 97.596v308.11l48.798 48.798v-356.908z" />
<glyph unicode="&#xe640;" glyph-name="list_view" d="M0-85.333v204.8h1024v-204.8h-1024zM0 529.067h1024v-204.8h-1024v204.8zM0 938.667h1024v-204.8h-1024v204.8z" />
<glyph unicode="&#xe641;" glyph-name="map_view" d="M768 170.667c0 0-256 370.637-256 512s114.637 256 256 256c141.363 0 256-114.637 256-256s-256-512-256-512zM768 785.067c-56.576 0-102.4-45.824-102.4-102.4s45.824-102.4 102.4-102.4c56.576 0 102.4 45.824 102.4 102.4s-45.824 102.4-102.4 102.4zM421.786 610.065l-116.173-119.194-305.613 313.446v6.4c0 70.707 57.293 128 128 128h389.786c-66.611-65.075-108.186-155.597-108.186-256.051 0-21.248 4.813-46.080 12.186-72.602zM0 177.477v424.755l207.053-212.378-207.053-212.378zM404.122 187.819l-266.24-273.050h-9.882c-51.149 0-94.925 30.208-115.456 73.523l293.069 300.493 98.509-100.966zM404.122 389.854l75.366 77.312c21.248-42.598 45.414-86.272 71.066-129.178l-47.923-49.203-98.509 101.069zM670.31-85.231h-335.411l167.731 171.981 167.68-171.981zM1024 42.769c0-70.707-57.344-128-128-128h-28.672l-99.328 102.298c0 0 150.067 196.147 256 388.147v-362.445z" />
<glyph unicode="&#xe642;" glyph-name="message_notice" d="M896 106.731h-255.616l-128.384-191.424-128.384 191.424h-255.616c-70.72 0-128 57.28-128 128v576c0 70.72 57.28 128 128 128h768c70.656 0 128-57.28 128-128v-576c0-70.72-57.344-128-128-128z" />
<glyph unicode="&#xe643;" glyph-name="requirement" d="M877.714 865.561c0 40.375-32.768 73.106-73.143 73.106h-402.286l-256-257.134v-693.687c0-40.411 32.731-73.179 73.143-73.179h585.143c40.375 0 73.143 32.768 73.143 73.179v877.714zM256 243.846h512v-73.143h-512v73.143zM256 390.132h512v-73.179h-512v73.179zM329.143 682.667h438.857v-73.106h-512l73.143 73.106zM475.429 828.953h292.571v-73.106h-365.714l73.143 73.106zM512 463.275h-256v73.143h256v-73.143zM512 24.418h-256v73.143h256v-73.143z" />
<glyph unicode="&#xe644;" glyph-name="requirement_bottom" d="M930.918 104.107h-93.107v-138.24l-139.622 138.24h-605.107c-51.405 0-93.082 41.267-93.082 92.16v599.040c0 50.918 41.677 92.16 93.082 92.16h837.837c51.405 0 93.082-41.242 93.082-92.16v-599.040c0-50.893-41.677-92.16-93.082-92.16zM204.8 605.867c-56.55 0-102.4-45.824-102.4-102.4 0-56.55 45.85-102.4 102.4-102.4s102.4 45.85 102.4 102.4c0 56.576-45.85 102.4-102.4 102.4zM512 605.867c-56.55 0-102.4-45.824-102.4-102.4 0-56.55 45.85-102.4 102.4-102.4s102.4 45.85 102.4 102.4c0 56.576-45.85 102.4-102.4 102.4zM819.2 605.867c-56.55 0-102.4-45.824-102.4-102.4 0-56.55 45.85-102.4 102.4-102.4s102.4 45.85 102.4 102.4c0 56.576-45.85 102.4-102.4 102.4z" />
<glyph unicode="&#xe645;" glyph-name="search_homepage" d="M582.173 55.062c-113.175 0-216.066 42.904-294.216 112.881l-252.956-252.956-34.706 34.706 252.956 252.956c-69.977 78.174-112.881 181.065-112.881 294.216 0 243.998 197.805 441.802 441.802 441.802s441.802-197.805 441.802-441.802c0-243.998-197.805-441.802-441.802-441.802zM582.173 865.033c-203.327 0-368.169-164.841-368.169-368.169s164.841-368.169 368.169-368.169c203.327 0 368.169 164.841 368.169 368.169s-164.841 368.169-368.169 368.169zM827.619 496.865c0 98.473-58.122 183.152-141.819 222.251l20.74 44.45c100.412-46.905 170.168-148.519 170.168-266.701h-49.089z" />
<glyph unicode="&#xe646;" glyph-name="setting" d="M1024 463.275c0 40.375-32.731 73.143-73.143 73.143h-52.114c-8.594 30.354-20.48 59.282-35.584 86.272l36.718 36.754c28.599 28.562 28.599 74.862 0 103.424l-51.712 51.712c-28.562 28.562-74.862 28.562-103.424 0l-36.754-36.754c-26.99 15.104-55.918 27.026-86.272 35.621v52.114c0 40.375-32.731 73.143-73.143 73.143h-73.143c-40.411 0-73.143-32.768-73.143-73.143v-52.114c-30.354-8.594-59.282-20.517-86.272-35.621l-36.754 36.754c-28.562 28.562-74.862 28.562-103.424 0l-51.749-51.712c-28.562-28.562-28.562-74.862 0-103.424l36.754-36.754c-15.104-26.99-26.99-55.918-35.584-86.272h-52.114c-40.411 0-73.143-32.768-73.143-73.143v-73.143c0-40.411 32.731-73.143 73.143-73.143h52.114c8.594-30.391 20.48-59.319 35.584-86.272l-36.754-36.754c-28.562-28.562-28.562-74.898 0-103.461l51.749-51.712c28.562-28.562 74.862-28.562 103.424 0l36.754 36.754c26.99-15.104 55.918-26.99 86.272-35.621v-52.114c0-40.375 32.731-73.106 73.143-73.106h73.143c40.411 0 73.143 32.731 73.143 73.106v52.114c30.354 8.631 59.282 20.517 86.272 35.621l36.754-36.754c28.562-28.562 74.862-28.562 103.424 0l51.712 51.712c28.599 28.562 28.599 74.898 0 103.461l-36.718 36.754c15.104 26.953 26.99 55.881 35.584 86.272h52.114c40.411 0 73.143 32.731 73.143 73.143v73.143zM512 170.667c-141.385 0-256 114.651-256 256 0 141.385 114.615 256.037 256 256.037s256-114.651 256-256.037c0-141.349-114.615-256-256-256z" />
<glyph unicode="&#xe647;" glyph-name="size_filter" d="M960-85.333v64h-640v-64h-64v192h64v-64h640v64h64v-192h-64zM256 938.667h768v-768h-768v768zM64 170.667h-64v64h64v640h-64v64.064h192v-64.064h-64v-640h64v-64h-128z" />
<glyph unicode="&#xe648;" glyph-name="tag_icon_small" d="M391.143 15.789c0 0-292.426 291.686-292.426 291.686-26.898 26.836-26.898 70.392 0 97.229 0 0 389.903 388.915 389.903 388.915s65.518 65.456 85.63 65.456c0 0 316.055 0 316.055 0 29.058 0 52.686-23.505 52.686-52.501 0 0 0-315.253 0-315.253 0-20.852-64.469-86.617-64.469-86.617s-389.903-388.915-389.903-388.915c-26.96-26.836-70.577-26.836-97.476 0zM732.306 647.776c-26.96 26.836-70.577 26.836-97.476 0-26.96-26.836-26.96-70.392 0-97.229 26.899-26.836 70.516-26.836 97.476 0 26.898 26.836 26.898 70.392 0 97.229z" />
<glyph unicode="&#xe649;" glyph-name="coin_hiw" d="M308.452 414.208c37.063 0 67.157-29.241 67.157-65.308s-30.094-65.308-67.157-65.308c-37.035 0-67.1 29.241-67.1 65.308s30.066 65.308 67.1 65.308v0zM626.148 818.176v0c-3.413 15.019-10.866 26.795-22.272 35.356-11.321 8.619-27.79 13.596-49.294 14.876v13.852h-21.020v-13.852c-23.609-1.195-41.415-7.424-53.39-18.574-11.947-11.207-17.948-25.060-17.948-41.728 0-12.146 3.044-22.471 8.96-30.891 5.945-8.505 12.971-14.62 21.077-18.46s21.931-8.363 41.301-13.596l21.020-6.030c9.358-3.214 15.588-6.599 18.773-10.297 3.243-3.726 4.864-7.765 4.864-12.146 0-5.035-1.934-9.614-5.66-13.682-12.629-13.568-42.923-11.378-53.504 3.556-2.901 4.153-5.234 10.837-6.969 20.053l-58.169-6.571c1.707-9.33 4.295-17.294 7.708-23.922 3.527-6.571 8.391-12.715 14.791-18.404 6.4-5.717 14.023-10.183 22.812-13.397 8.761-3.243 20.196-5.461 34.332-6.656v-26.539h21.020v26.539c11.776 0.427 21.788 1.963 29.952 4.523 8.135 2.588 15.872 6.741 23.125 12.402 7.253 5.717 13.17 12.828 17.892 21.305 4.665 8.533 6.969 17.92 6.969 28.075 0 17.408-6.514 31.772-19.428 43.065-9.813 8.42-29.269 16.412-58.51 23.979l-21.020 5.319c-6.059 2.048-10.297 4.608-12.8 7.652-2.418 3.015-3.669 6.628-3.669 10.724 0 3.925 1.252 7.31 3.669 10.24 9.444 11.52 35.385 9.756 44.544-1.195 2.162-2.588 4.58-7.168 7.253-13.824l53.589 8.249zM541.753 959.972v0c114.46 0 207.246-90.34 207.246-201.756s-92.786-201.756-207.246-201.756c-114.46 0-207.246 90.34-207.246 201.756s92.786 201.756 207.246 201.756zM541.753 900.892c-80.981 0-146.603-63.886-146.603-142.677s65.621-142.649 146.603-142.649c80.924 0 146.546 63.858 146.546 142.649s-65.621 142.677-146.546 142.677v0zM288.569 372.85c-20.395 0-36.949-16.128-36.949-35.982 0-19.883 16.555-36.011 36.949-36.011 20.423 0 36.978 16.128 36.978 36.011 0 19.854-16.555 35.982-36.978 35.982v0zM660.366 518.457c-35.868-16.839-76.117-26.311-118.613-26.311-51.172 0-99.044 13.71-140.004 37.518-22.13-4.21-43.463-9.7-63.829-16.327l-43.179 55.694c-20.992 27.079-29.952 22.215-41.984-17.124l-28.9-94.663c-39.765-28.046-70.855-61.952-90.226-99.669h-71.993c-10.468 0-19.001-8.334-19.001-18.517v-149.333c0-10.155 8.533-18.517 19.001-18.517h74.297c28.843-53.191 81.152-98.56 148.309-130.105v-91.42c0-7.509 6.286-13.625 13.995-13.625h131.527c7.68 0 14.023 6.116 14.023 13.625v47.588c20.708-2.332 41.984-3.556 63.659-3.556 37.006 0 72.846 3.499 106.837 10.069v-52.082c0-8.619 7.196-15.644 16.071-15.644h127.431c8.875 0 16.014 7.026 16.014 15.644v112.811c73.159 45.71 121.372 109.909 129.052 181.902 8.277-5.746 19.484-9.244 31.801-9.244 25.799 0 46.677 15.388 46.677 34.389 0 18.972-20.878 34.361-46.677 34.361-12.914 0-24.548-3.84-33.052-10.069-15.531 100.636-110.677 184.974-241.237 222.606z" />
<glyph unicode="&#xe64a;" glyph-name="double_file_hiw" d="M924.903-64h-528.516c-36.501 0-66.065 29.564-66.065 66.065v660.645c0 36.501 29.564 66.065 66.065 66.065h394.306l200.275-200.242v-526.468c0-36.501-29.564-66.065-66.065-66.065zM429.419 68.129h231.226v33.032h-231.226v-33.032zM429.419 167.226h462.452v33.032h-462.452v-33.032zM429.419 266.323h462.452v33.032h-462.452v-33.032zM429.419 365.419h462.452v33.032h-462.452v-33.032zM561.548 596.645h-132.129v-132.129h132.129v132.129zM726.71 596.645h-132.129v-33.032h132.129v33.032zM726.71 497.548h-132.129v-33.032h132.129v33.032zM957.935 530.581h-132.129c-18.234 0-33.032 14.798-33.032 33.032v132.129h-33.032v-132.129c0-36.501 29.564-66.065 66.065-66.065h132.129v33.032zM528.516 761.806c-18.234 0-33.032 14.798-33.032 33.032v132.129h-33.032v-132.129c0-12.090 3.501-23.288 9.15-33.032h-108.247c-24.378 0-45.452-13.378-56.915-33.032h-9.15v-99.097h-165.161v-33.032h165.161v-66.065h-165.161v-33.032h165.161v-66.065h-165.161v-33.032h165.161v-66.065h-165.161v-33.032h165.161v-132.129h-198.194c-36.501 0-66.065 29.564-66.065 66.065v660.645c0 36.501 29.564 66.065 66.065 66.065h394.306l198.194-198.194h-163.080zM264.258 827.871h-132.129v-132.129h132.129v132.129zM429.419 827.871h-132.129v-33.032h132.129v33.032z" />
<glyph unicode="&#xe64b;" glyph-name="select" d="M785.067-64h-546.133c-75.401 0-136.533 61.133-136.533 136.533v750.933c0 75.435 61.133 136.533 136.533 136.533h546.133c75.401 0 136.533-61.099 136.533-136.533v-750.933c0-75.401-61.133-136.533-136.533-136.533zM477.867 106.667h170.667v34.167h-170.667v-34.167zM477.867 379.733h170.667v34.133h-170.667v-34.133zM477.867 652.8h170.667v34.167h-170.667v-34.167zM409.6 789.367h-136.533v-136.567h136.533v136.567zM409.6 516.267h-136.533v-136.533h136.533v136.533zM409.6 243.2h-136.533v-136.533h136.533v136.533zM750.933 789.367h-273.067v-34.167h273.067v34.167zM750.933 516.267h-273.067v-34.133h273.067v34.133zM750.933 243.2h-273.067v-34.133h273.067v34.133z" />
<glyph unicode="&#xe64c;" glyph-name="submit" d="M870.4-64h-716.8c-75.401 0-136.533 61.133-136.533 136.533v750.933c0 75.435 61.133 136.533 136.533 136.533h546.133c75.401 0 136.533-61.099 136.533-136.533v-768c0-28.262 22.903-51.166 51.2-51.166h34.133c28.262 0 51.2 22.903 51.2 51.166v277.197c20.992-23.996 34.133-55.057 34.133-89.463v-170.667c0-75.401-61.133-136.533-136.533-136.533zM273.067 209.067c65.98 0 119.467 53.487 119.467 119.467s-53.487 119.467-119.467 119.467c-65.98 0-119.467-53.487-119.467-119.467s53.487-119.467 119.467-119.467zM699.733 755.2h-546.133v-34.133h546.133v34.133zM699.733 652.8h-546.133v-34.133h546.133v34.133zM699.733 550.4h-546.133v-34.133h546.133v34.133zM699.733 448h-273.067v-34.133h273.067v34.133zM699.733 345.634h-238.933v-34.167h238.933v34.167zM699.733 243.2h-273.067v-34.133h273.067v34.133z" />
<glyph unicode="&#xe64d;" glyph-name="switch_button" d="M0 362.667v170.667h1024v-170.667h-1024zM0 960h1024v-170.667h-1024v170.667zM682.667-64h-682.667v170.667h682.667v-170.667z" />
<glyph unicode="&#xe64e;" glyph-name="user_header" d="M606.080 299.328c25.536-5.248 49.6-12.48 70.528-22.208l347.392-161.984v-179.136h-1024v179.136l347.392 161.984c20.864 9.728 44.992 16.96 70.464 22.208-118.784 56-204.544 211.136-204.544 361.984 0 188.544 133.696 298.688 298.688 298.688 164.928 0 298.624-110.144 298.624-298.688 0-150.848-85.76-305.984-204.544-361.984z" />
<glyph unicode="&#xe64f;" glyph-name="down_arrow" horiz-adv-x="1023" d="M519.265 317.838l376.845 376.845 58.044-58.044-434.888-434.888-434.888 434.888 58.044 58.044 376.845-376.845z" />
<glyph unicode="&#xe650;" glyph-name="enter" d="M512-64c-282.77 0-512 229.23-512 512s229.23 512 512 512c282.77 0 512-229.23 512-512s-229.23-512-512-512zM512 891.739c-245.065 0-443.739-198.674-443.739-443.739s198.674-443.739 443.739-443.739c245.065 0 443.739 198.674 443.739 443.739s-198.674 443.739-443.739 443.739zM729.381 438.473c-0.713-2.688-1.719-5.157-3.054-7.643-1.042-1.938-2.231-3.767-3.584-5.467-0.841-1.061-1.207-2.359-2.176-3.346l-180.791-182.674c-14.263-14.409-37.394-14.409-51.657 0s-14.263 37.778 0 52.187l118.601 119.845h-277.632c-20.169 0-36.517 16.53-36.517 36.919 0 20.37 16.347 36.901 36.517 36.901h277.632l-118.601 119.845c-14.263 14.427-14.263 37.797 0 52.206s37.394 14.409 51.657 0l180.791-182.693c0.969-0.987 1.335-2.267 2.176-3.328 1.353-1.719 2.542-3.529 3.584-5.486 1.335-2.487 2.341-4.955 3.054-7.625 0.512-1.829 0.841-3.694 1.061-5.614 0.146-1.426 0.786-2.779 0.786-4.206s-0.64-2.798-0.786-4.224c-0.219-1.92-0.549-3.785-1.061-5.595z" />
<glyph unicode="&#xe651;" glyph-name="left_arrow" horiz-adv-x="290" d="M68.181 448l221.952-443.904-34.133-68.267-256.085 512.171 256.085 512.171 34.133-68.267-221.952-443.904z" />
<glyph unicode="&#xe652;" glyph-name="right_arrow2" horiz-adv-x="290" d="M221.952 448l-221.952 443.904 34.133 68.267 256.085-512.171-256.085-512.171-34.133 68.267 221.952 443.904z" />
<glyph unicode="&#xe653;" glyph-name="up_arrow" horiz-adv-x="910" d="M455.090 732.743l-341.768-341.653-113.897 113.859 455.665 455.55 455.665-455.55-113.897-113.859-341.768 341.653zM910.755 49.475l-113.897-113.859-341.768 341.653-341.768-341.653-113.897 113.859 455.665 455.55 455.665-455.55z" />
<glyph unicode="&#xe654;" glyph-name="email_header" horiz-adv-x="1260" d="M630.154 429.962l-630.154 354.698v72.94c0 56.556 47.025 102.4 104.999 102.4h1050.23c58.053 0 105.078-45.844 105.078-102.4v-72.94l-630.154-354.698zM630.154 327.562l630.154 354.698v-643.86c0-56.556-47.025-102.4-105.078-102.4h-1050.23c-57.974 0-104.999 45.844-104.999 102.4v643.86l630.154-354.698z" />
<glyph unicode="&#xe655;" glyph-name="email" horiz-adv-x="1020" d="M506.828 433.556l-504.578 284.017v58.404c0 45.285 37.653 81.995 84.075 81.995h840.943c46.485 0 84.138-36.709 84.138-81.995v-58.404l-504.578-284.017zM506.828 351.563l504.578 284.015v-515.552c0-45.285-37.653-81.995-84.138-81.995h-840.943c-46.421 0-84.075 36.709-84.075 81.995v515.552l504.578-284.017z" />
<glyph unicode="&#xe656;" glyph-name="Apple_logo" d="M769.843 417.864c1.354-145.848 127.948-194.383 129.35-195.002-1.070-3.423-20.227-69.167-66.695-137.075-40.169-58.71-81.86-117.206-147.535-118.417-64.532-1.189-85.283 38.268-159.061 38.268-73.756 0-96.811-37.056-157.898-39.457-63.393-2.399-111.666 63.488-152.169 121.983-82.763 119.654-146.012 338.114-61.085 485.579 42.19 73.231 117.586 119.605 199.422 120.794 62.25 1.187 121.007-41.88 159.061-41.88 38.030 0 109.432 51.792 184.495 44.186 31.424-1.308 119.63-12.693 176.27-95.6-4.564-2.829-105.249-61.443-104.154-183.378zM648.562 776.003c33.656 40.739 56.308 97.451 50.128 153.88-48.512-1.95-107.174-32.327-141.971-73.044-31.185-36.056-58.495-93.767-51.126-149.078 54.073-4.184 109.312 27.478 142.969 68.242z" />
<glyph unicode="&#xe657;" glyph-name="up_arrow2" horiz-adv-x="1023" d="M519.265 578.162l376.845-376.845 58.044 58.044-434.888 434.888-434.888-434.888 58.044-58.044 376.845 376.845z" />
<glyph unicode="&#xe658;" glyph-name="play" d="M904.055 426.667l-784.555-512v1024l784.555-512z" />
<glyph unicode="&#xe659;" glyph-name="circle" d="M1006.387 315.269c-2.847-10.588-6.062-21.033-9.544-31.334h-364.585c12.759 9.196 24.433 19.784 34.673 31.662 3.871 4.485 7.557 9.134 11.039 13.947l308.818 307.712c16.937-41.697 28.447-86.139 33.792-132.444 2.171-18.924 3.42-38.134 3.42-57.651 0-45.67-6.226-89.825-17.613-131.891zM831.14 316.068l-0.532-0.532h0.532v0.532zM714.465 467.436c-0.451 5.878-1.147 11.776-2.109 17.613v435.2c41.574-17.572 81.265-40.878 117.903-69.878 14.95-11.837 29.471-24.535 43.315-38.339 32.399-32.297 59.351-67.912 81.162-105.677 5.468-9.482 10.629-19.128 15.483-28.877l-257.823-256.881c2.519 15.503 3.256 31.212 2.068 46.838zM830.239 582.717l0.369 0.348-0.369 0.369v-0.717zM644.792 604.221c-4.485 3.85-9.155 7.516-13.988 10.977l-308.818 307.732c41.841 16.876 86.446 28.344 132.936 33.649 18.985 2.171 38.257 3.42 57.856 3.42 45.814 0 90.132-6.205 132.362-17.531 10.609-2.867 21.094-6.062 31.437-9.523v-363.295c-9.216 12.739-19.845 24.351-31.785 34.57zM644.342 767.836l0.512-0.532v0.532h-0.512zM494.756 650.363c-5.919-0.451-11.817-1.147-17.695-2.089h-436.756c17.633 41.431 41.021 80.957 70.124 117.473 11.899 14.909 24.637 29.368 38.482 43.172 32.399 32.297 68.157 59.126 106.045 80.855 9.544 5.468 19.21 10.588 28.979 15.442l257.823-256.901c-15.565 2.519-31.334 3.236-47.002 2.048zM378.696 766.095l-0.369-0.369h0.737l-0.369 0.369zM357.069 580.219c-3.871-4.485-7.557-9.134-11.039-13.947l-308.818-307.712c-16.937 41.697-28.467 86.139-33.792 132.465-2.171 18.924-3.42 38.113-3.42 57.631 0 45.67 6.226 89.825 17.613 131.891 2.847 10.588 6.062 21.033 9.544 31.334h364.585c-12.759-9.196-24.433-19.784-34.673-31.662zM192.86 580.28v-0.532l0.532 0.532h-0.532zM309.207 431.022c0.451-5.898 1.147-11.776 2.089-17.613v-435.2c-41.574 17.551-81.244 40.878-117.883 69.878-14.971 11.837-29.491 24.535-43.336 38.339-32.399 32.276-59.331 67.912-81.142 105.677-5.489 9.482-10.629 19.128-15.483 28.877l257.802 256.881c-2.519-15.503-3.236-31.212-2.048-46.838zM193.434 315.74l-0.369-0.369 0.369-0.369v0.737zM379.249 291.799c4.506-3.85 9.175-7.516 14.008-10.998l308.818-307.712c-41.841-16.896-86.446-28.365-132.936-33.669-18.985-2.171-38.257-3.42-57.856-3.42-45.814 0-90.132 6.205-132.362 17.551-10.609 2.847-21.094 6.042-31.437 9.503v363.295c9.216-12.718 19.845-24.351 31.764-34.55zM379.208 128.184h0.512l-0.512 0.512v-0.512zM526.807 243.651c5.919 0.451 11.817 1.147 17.695 2.089h436.736c-17.613-41.431-41.001-80.957-70.103-117.473-11.899-14.909-24.637-29.368-38.482-43.172-32.399-32.276-68.157-59.126-106.066-80.855-9.523-5.468-19.19-10.588-28.979-15.421l-257.802 256.881c15.544-2.499 31.314-3.236 47.002-2.048zM642.867 127.918l0.369 0.369h-0.737l0.369-0.369z" />
<glyph unicode="&#xe65a;" glyph-name="invest" horiz-adv-x="996" d="M943.043-73.143v787.692h52.513v-787.692h-52.513zM943.043 861.218l-367.59-367.59-262.564 262.564-275.692-275.692-37.127 37.127 312.819 312.819 262.564-262.564 330.463 330.463h-94.155v52.513h183.795v-183.795h-52.513v94.155zM76.581-73.143h-52.513v393.846h52.513v-393.846zM207.863-73.143h-52.513v525.128h52.513v-525.128zM339.145-73.143h-52.513v656.41h52.513v-656.41zM470.427-73.143h-52.513v525.128h52.513v-525.128zM601.709-73.143h-52.513v393.846h52.513v-393.846zM732.991-73.143h-52.513v525.128h52.513v-525.128zM864.274-73.143h-52.513v656.41h52.513v-656.41z" />
<glyph unicode="&#xe65b;" glyph-name="key" d="M689.763 901.309c75.892 0 147.274-29.977 201.001-84.43 111.335-112.822 111.335-296.398 0-409.237-53.677-54.388-125.027-84.348-200.869-84.348-38.813 0-76.503 7.796-111.996 23.205-6.359 2.758-13.064 4.096-19.704 4.096-12.998 0-25.782-5.12-35.278-14.749l-52.521-53.231c-5.368 1.949-11.066 2.956-16.879 2.956-13.246 0-25.947-5.302-35.262-14.732l-290.535-294.433h-78.187v68.179c10.884 1.437 21.042 6.441 28.821 14.353l3.32 3.353c9.15 9.282 14.27 21.768 14.27 34.799v26.492h25.286c27.367 0 49.548 22.198 49.548 49.548v42.331h41.323c13.262 0 25.947 5.302 35.262 14.732l6.276 6.359c9.15 9.266 14.286 21.768 14.286 34.799v20.199h19.274c13.246 0 25.947 5.318 35.262 14.749l31.315 31.744c15.294 15.492 18.3 38.549 9.034 57.030l53.083 53.793c13.89 14.088 18.069 35.064 10.653 53.397-43.834 108.379-19.423 231.886 62.233 314.616 53.727 54.454 125.11 84.43 200.985 84.43zM743.771 501.354c43.949 0 85.24 17.309 116.274 48.739 63.604 64.462 63.604 169.34 0 233.786-31.034 31.447-72.324 48.756-116.274 48.756s-85.24-17.309-116.257-48.756c-63.604-64.446-63.604-169.323 0-233.786 31.017-31.43 72.308-48.739 116.257-48.739zM689.763 950.857c-85.504 0-171.008-33.049-236.247-99.163-98.172-99.493-122.451-245.496-72.886-368.012l-85.735-86.908 23.618-23.932-31.315-31.744h-43.256c-14.121 0-25.567-11.594-25.567-25.897v-43.85l-6.276-6.342h-62.2c-15.839 0-28.672-12.998-28.672-29.035v-62.844h-50.506c-13.428 0-24.328-11.033-24.328-24.626v-51.415l-3.32-3.369h-15.641c-15.162 0-27.433-12.453-27.433-27.813v-111.236c0-15.36 12.271-27.813 27.433-27.813h109.766c4.063 0 7.895 0.941 11.363 2.56l1.189-1.222 6.094 6.177c0.479 0.446 0.941 0.908 1.387 1.404l296.283 300.247 20.249-20.513 84.414 85.537c41.951-18.201 86.842-27.318 131.716-27.318 85.471 0 170.909 33.016 236.131 99.113 130.477 132.228 130.477 346.624 0 478.852-65.239 66.114-150.743 99.163-236.263 99.163v0zM743.771 550.902c-29.316 0-58.632 11.33-80.995 34.007-44.742 45.337-44.742 118.834 0 164.17 22.363 22.677 51.679 34.007 80.995 34.007s58.632-11.33 81.012-34.007c44.726-45.337 44.726-118.834 0-164.17-22.379-22.677-51.695-34.007-81.012-34.007v0z" />
<glyph unicode="&#xe65c;" glyph-name="QA" horiz-adv-x="1138" d="M992.256 87.268h-246.3l-177.067-172.601-177.067 172.601h-246.3c-80.242 0-145.522 63.687-145.522 141.966v567.495c0 78.251 65.28 141.938 145.522 141.938h846.734c80.242 0 145.522-63.687 145.522-141.938v-567.495c0-78.279-65.28-141.966-145.522-141.966zM1058.389 796.729c0 35.499-29.668 64.398-66.133 64.398h-846.734c-36.466 0-66.162-28.9-66.162-64.398v-567.495c0-35.527 29.696-64.427 66.162-64.427h279.125l144.242-140.601 144.213 140.601h279.154c36.466 0 66.133 28.9 66.133 64.427v567.495zM609.877 445.924l-2.048-12.288c-2.731-17.749-17.067-33.451-36.892-33.451h-5.461c-19.797 0-34.133 15.019-36.864 33.451l-6.827 46.421c-3.413 22.528 9.557 38.229 31.403 40.96 59.42 7.509 86.727 25.941 86.727 59.392v1.365c0 30.72-23.211 48.498-62.834 48.498-29.355 0-54.613-8.875-79.189-27.335-8.192-6.144-19.115-10.923-30.72-10.923-25.941 0-47.787 21.845-47.787 47.815 0 12.971 5.461 26.624 17.749 36.864 36.181 30.037 81.92 49.152 142.023 49.152 98.304 0 165.205-50.517 165.205-141.34v-1.365c0-86.699-60.075-122.197-134.485-137.216zM565.476 355.129c34.162 0 59.42-25.259 59.42-58.027v-1.365c0-32.796-25.259-58.055-59.42-58.055-34.133 0-59.392 25.259-59.392 58.055v1.365c0 32.768 25.259 58.027 59.392 58.027z" />
<glyph unicode="&#xe800;" glyph-name="water_cooler" horiz-adv-x="765" d="M392.96 909.995q14.336-120.832 61.44-224.256t94.208-162.816 83.968-139.264 36.864-163.84q0-116.736-84.992-200.704t-201.728-83.968-201.728 83.968-84.992 200.704q0 83.968 36.864 163.84t83.968 139.264 94.208 162.816 61.44 224.256q2.048 8.192 11.264 8.192t9.216-8.192zM349.952 508.587q2.048 4.096-2.048 14.336-6.144 6.144-14.336 6.144t-12.288-6.144l-40.96-59.392q-32.768-47.104-49.152-71.68t-34.816-76.8-18.432-103.424q0-24.576 17.408-41.984t41.984-17.408q59.392 0 59.392 69.632 0 96.256 43.008 251.904 2.048 6.144 5.12 17.408t5.12 17.408z" />
<glyph unicode="&#xe801;" glyph-name="air_condition" horiz-adv-x="1373" d="M1119.689 863.513c0 0-873.692 0-873.692 0-48.053 0-87.37-39.317-87.37-87.37 0 0 0-698.954 0-698.954 0-48.053 39.317-87.37 87.37-87.37 0 0 873.692 0 873.692 0 48.053 0 87.37 39.317 87.37 87.37 0 0 0 698.954 0 698.954 0 48.053-39.317 87.37-87.37 87.37zM988.635 99.033c0-24.463-19.221-43.684-43.684-43.684 0 0-677.112 0-677.112 0-24.463 0-43.684 19.221-43.684 43.684 0 0 0 655.269 0 655.269 0 24.463 19.221 43.684 43.684 43.684 0 0 677.112 0 677.112 0 24.463 0 43.684-19.221 43.684-43.684 0 0 0-655.269 0-655.269zM922.234 538.499c-83.001 144.16-133.675 149.402-230.656 93.485-48.053-27.958-87.37-71.642-111.832-112.706-11.359 19.221-20.095 41.064-21.842 68.149 6.99 14.852 2.621 110.085-32.327 129.306-112.706 59.412-176.486-42.81-168.623-28.832-83.001-145.034-62.906-191.339 34.074-247.255 48.053-27.084 104.843-40.191 152.897-41.064-10.485-20.095-25.337-39.317-49.801-54.169-15.726-1.748-96.981-53.295-95.233-93.485 4.369-126.685 124.939-131.053 109.211-131.053 166.875 0 196.581 41.064 196.581 152.897 0 56.79-18.347 113.58-42.81 155.516 22.716 0.874 48.053-1.748 73.39-15.726 9.611-13.106 94.359-56.79 128.431-35.821 107.464 67.275 50.674 174.738 58.538 160.759zM595.474 404.825c-24.463 0-43.684 19.221-43.684 43.684s19.221 43.684 43.684 43.684c24.463 0 43.684-19.221 43.684-43.684s-19.221-43.684-43.684-43.684z" />
<glyph unicode="&#xe802;" glyph-name="coffeemaker" horiz-adv-x="1097" d="M951.296 573.099q0 46.080-32.768 77.824t-77.824 31.744h-35.84v-219.136h35.84q46.080 0 77.824 31.744t32.768 77.824zM0 133.803h1024q0-60.416-43.008-103.424t-103.424-43.008h-731.136q-60.416 0-103.424 43.008t-43.008 103.424zM1060.864 573.099q0-91.136-64.512-155.648t-155.648-63.488h-35.84v-18.432q0-53.248-37.888-90.112t-90.112-37.888h-402.432q-52.224 0-90.112 37.888t-37.888 90.112v419.84q0 15.36 11.264 26.624t25.6 10.24h657.408q91.136 0 155.648-64.512t64.512-154.624z" />
<glyph unicode="&#xe803;" glyph-name="computer" d="M882.718 144.819c0 0-264.92 0-264.92 0s26.238-105.798 26.238-105.798c0 0 44.011 0 44.011 0s0-35.548 0-35.548c0 0-34.702 0-34.702 0s-282.695 0-282.695 0c0 0-34.702 0-34.702 0s0 35.548 0 35.548c0 0 44.011 0 44.011 0s26.238 105.798 26.238 105.798c0 0-264.073 0-264.073 0-29.624 0-53.322 23.699-53.322 52.476 0 0 0 600.090 0 600.090 0 28.778 23.699 52.476 53.322 52.476 0 0 740.591 0 740.591 0 28.778 0 52.476-23.699 52.476-52.476 0 0 0-600.090 0-600.090 0-28.778-23.699-52.476-52.476-52.476zM882.718 744.062c0 29.624-23.699 53.322-53.322 53.322 0 0-634.792 0-634.792 0-28.778 0-52.476-23.699-52.476-53.322 0 0 0-405.421 0-405.421 0-29.624 23.699-53.322 52.476-53.322 0 0 634.792 0 634.792 0 29.624 0 53.322 23.699 53.322 53.322 0 0 0 405.421 0 405.421z" />
<glyph unicode="&#xe804;" glyph-name="dryer" d="M100.644 256.451q0 14.184 13.093 24.005t31.643 9.82h534.654q42.554 0 72.014-29.461t30.552-73.106-30.552-72.014-72.014-30.552-72.014 30.552-30.552 72.014q0 17.459 6.547 33.825h-438.634q-19.641 0-31.643 9.82t-13.093 25.096zM100.644 392.842q0 14.184 9.82 24.005t24.005 9.82h654.678q-6.547 16.366-6.547 33.825 0 42.554 29.461 72.014t72.014 30.552 73.106-30.552 29.461-72.014-29.461-72.014-73.106-30.552h-749.606q-14.184 0-24.005 9.82t-9.82 25.096zM100.644 528.142q0 15.275 9.82 25.096t24.005 9.82h313.154q-6.547 16.366-6.547 33.825 0 42.554 30.552 72.014t72.014 30.552 72.014-30.552 30.552-72.014-30.552-72.014-72.014-30.552h-409.174q-14.184 0-24.005 9.82t-9.82 24.005z" />
<glyph unicode="&#xe805;" glyph-name="electronic_iron" horiz-adv-x="1374" d="M611.248 113.252c0 0-379.851 0-379.851 0 0 210.147 169.707 379.851 379.851 379.851 0 0 0 0 0 0s455.678 0 455.678 0c0 0 76.549-379.851 76.549-379.851s-532.228 0-532.228 0zM202.509 103.865c0 0 912.078 0 912.078 0s0-19.498 0-19.498c0-10.11-8.666-18.776-18.776-18.776 0 0-874.525 0-874.525 0-10.11 0-18.776 8.666-18.776 18.776 0 0 0 19.498 0 19.498zM848.836 521.992c51.996 0 94.601 42.606 94.601 94.601 0 52.718-42.606 95.325-94.601 95.325 0 0-246.975 0-246.975 0-13.719 0-26.72-2.89-38.273-7.944 0 0 0 12.999 0 12.999-5.778-2.889-12.275-5.056-18.776-5.056-20.942 0-38.273 16.61-38.273 37.552s17.332 38.273 38.273 38.273c6.499 0 12.999-2.167 18.776-5.056 0 0 0 5.056 0 5.056s418.127 0 418.127 0c0 0 54.884-265.752 54.884-265.752s-187.759 0-187.759 0zM563.586 521.992c0 0 0 7.944 0 7.944 11.554-5.056 24.554-7.944 38.273-7.944 0 0-38.273 0-38.273 0z" />
<glyph unicode="&#xe806;" glyph-name="electronic_oven" horiz-adv-x="689" d="M558.080 505.515c-21.504 0-38.912-17.408-38.912-38.912 0 0 0-99.328 0-99.328s0-78.848 0-78.848c0 0 0-117.76 0-117.76 0-43.008-35.84-78.848-78.848-78.848-44.032 0-78.848 35.84-78.848 78.848 0 0 59.392 0 59.392 0 31.744 0 58.368 26.624 58.368 59.392 0 0 0 157.696 0 157.696 0 31.744-26.624 58.368-58.368 58.368 0 0 0 59.392 0 59.392s-39.936 0-39.936 0c0 0 0-59.392 0-59.392s-78.848 0-78.848 0c0 0 0 59.392 0 59.392s-38.912 0-38.912 0c0 0 0-59.392 0-59.392-32.768 0-59.392-26.624-59.392-58.368 0 0 0-157.696 0-157.696 0-32.768 26.624-59.392 59.392-59.392 0 0 58.368 0 58.368 0 0-65.536 53.248-117.76 118.784-117.76 64.512 0 117.76 52.224 117.76 117.76 0 0 0 78.848 0 78.848s0 117.76 0 117.76c0 0 0 78.848 0 78.848 0 11.264 9.216 20.48 19.456 20.48 0 0 89.088 0 89.088 0 38.912-135.168 27.648-286.72 27.648-210.944 0-188.416-153.6-340.992-344.064-340.992-189.44 0-343.040 152.576-343.040 340.992 0-132.096-57.344 303.104 172.032 512-43.008-150.528-67.584-208.896-43.008-256 5.12-9.216 9.216-20.48 13.312-30.72 9.216 9.216 19.456 19.456 29.696 30.72 209.92 317.44 84.992 427.008 84.992 427.008s244.736-131.072 387.072-427.008c1.024-2.048 2.048-4.096 3.072-6.144 0 0-96.256 0-96.256 0z" />
<glyph unicode="&#xe807;" glyph-name="gym" d="M859.251 736.68c8.379-10.241 16.757-19.55 24.205-30.722 0 0 0 0 0.931 0 57.72-78.201 93.097-174.091 93.097-279.291s-35.377-201.089-93.097-279.291c-0.931 0-0.931 0-0.931 0-84.718-112.647-219.709-186.194-371.457-186.194s-286.738 73.547-371.457 186.194c0 0 0 0-0.931 0-53.996 73.547-88.442 162.92-92.166 259.74 0 0 0 0 0 0 0 6.517-0.931 13.034-0.931 19.55s0.931 13.034 0.931 19.55c0 0 0 0 0 0 3.724 96.821 38.17 186.194 92.166 259.74 0.931 0 0.931 0 0.931 0.931 7.448 10.241 15.826 19.55 24.205 29.791 0 0 0 0 0 0s0 0 0 0c11.172 11.172 22.343 22.343 33.515 33.515 0 0 0.931 0 0.931 0.931 11.172 10.241 23.274 19.55 35.377 28.86 0.931 0 1.862 0.931 2.793 1.862 11.172 8.379 23.274 15.826 35.377 23.274 1.862 0.931 3.724 2.793 5.586 3.724 11.172 6.517 23.274 13.034 34.446 18.619 2.793 0.931 5.586 2.793 9.31 3.724 11.172 4.655 22.343 9.31 33.515 13.965 3.724 0.931 7.448 2.793 11.172 3.724 11.172 3.724 22.343 6.517 33.515 9.31 4.655 0.931 9.31 2.793 13.965 3.724 11.172 1.862 23.274 3.724 34.446 5.586 4.655 0.931 9.31 1.862 13.965 1.862 15.826 1.862 32.584 2.793 49.341 2.793 0 0 0 0 0 0s0 0 0 0c16.757 0 33.515-0.931 49.341-2.793 4.655 0 9.31-0.931 13.965-1.862 11.172-1.862 23.274-3.724 34.446-5.586 4.655-0.931 9.31-2.793 13.965-3.724 11.172-2.793 22.343-5.586 33.515-9.31 3.724-0.931 7.448-2.793 11.172-3.724 11.172-4.655 23.274-9.31 34.446-13.965 2.793-0.931 5.586-2.793 8.379-3.724 12.103-5.586 23.274-12.103 34.446-18.619 1.862-0.931 3.724-2.793 5.586-3.724 12.103-7.448 24.205-14.895 35.377-23.274 0.931-0.931 1.862-1.862 2.793-1.862 12.103-9.31 24.205-18.619 35.377-28.86 0-0.931 0.931-0.931 0.931-0.931 12.103-11.172 22.343-22.343 33.515-33.515 0 0 0 0 0 0s0 0 0 0zM918.833 407.117c0 0-192.711 0-192.711 0 4.655-93.097 39.101-178.746 94.028-246.707 57.72 67.030 94.028 152.679 98.683 246.707zM793.153 132.481c-62.375 75.408-101.476 170.367-105.199 274.636 0 0-156.403 0-156.403 0s0-387.283 0-387.283c101.476 5.586 192.711 46.548 261.602 112.647zM492.45 19.834c0 0 0 387.283 0 387.283s-156.403 0-156.403 0c-3.724-104.269-42.825-199.227-105.199-274.636 68.892-66.099 160.127-107.061 261.602-112.647zM297.877 407.117c0 0-191.78 0-191.78 0 3.724-94.028 40.032-179.677 98.683-246.707 53.996 67.961 88.442 153.61 93.097 246.707zM106.098 446.217c0 0 191.78 0 191.78 0-4.655 93.097-39.101 178.746-93.097 246.707-58.651-67.030-94.959-152.679-98.683-246.707zM230.847 720.853c62.375-75.408 101.476-170.367 105.199-274.636 0 0 156.403 0 156.403 0s0 387.283 0 387.283c-101.476-5.586-192.711-46.548-261.602-112.647zM531.55 446.217c0 0 156.403 0 156.403 0 3.724 104.269 42.825 199.227 105.199 274.636-68.892 66.099-160.127 107.061-261.602 112.647 0 0 0-387.283 0-387.283zM726.123 446.217c0 0 192.711 0 192.711 0-4.655 94.028-40.963 179.677-98.683 246.707-54.927-67.961-89.373-153.61-94.028-246.707z" />
<glyph unicode="&#xe808;" glyph-name="network" horiz-adv-x="942" d="M251.328 570.036q-20.481 0-39.101-9.31-44.687 48.41-85.649 119.164 50.272 68.892 119.164 109.854 85.649-35.377 141.507-76.339-5.586-14.896-5.586-29.791 0-5.586 3.724-20.481-57.72-44.687-107.992-96.821-14.896 3.724-26.067 3.724zM160.093 478.801q0-31.653 18.619-55.858-55.858-106.13-74.478-215.985-61.444 98.683-61.444 219.709 0 102.407 46.548 191.78 35.377-57.72 78.201-104.269-7.448-22.343-7.448-35.377zM472.899 774.849q-26.067 0-46.548-13.034-53.996 39.101-106.13 65.168 78.201 27.929 150.817 27.929 111.716 0 214.123-57.72-70.754-13.034-150.817-46.548-24.205 24.205-61.444 24.205zM608.82 346.604q-148.955 22.343-269.981 104.268 3.724 18.619 3.724 27.929 0 22.343-13.034 48.41 35.377 40.963 91.235 83.787 24.205-18.619 52.134-18.619 13.034 0 35.377 7.448 87.511-100.545 124.75-223.433-14.895-13.034-24.205-29.791zM727.984 223.716q35.377 13.034 50.272 55.858 53.996 3.724 100.545 16.757-42.825-135.921-154.541-215.985 5.586 44.687 5.586 91.235 0 9.31-0.931 26.067t-0.931 26.067zM588.339 285.16q-176.884-89.373-283.014-253.223-83.787 33.515-147.093 102.407 11.172 134.059 74.477 255.085 5.586-1.862 18.619-1.862 27.929 0 48.41 13.034 132.198-91.235 288.6-115.44zM759.637 743.196q139.645-126.612 139.645-316.529 0-20.481-3.724-61.444-59.582-16.757-121.026-22.343-22.343 52.134-81.925 55.858-44.687 135.921-137.783 245.776 9.31 18.619 9.31 39.101v9.31q93.097 39.101 195.503 50.272zM633.025 236.749q13.034-9.31 29.791-16.757 1.862-16.757 1.862-48.41 0-74.478-13.034-134.060-80.063-39.101-180.608-39.101-53.996 0-104.269 11.172 102.407 148.955 266.257 227.156z" />
<glyph unicode="&#xe809;" glyph-name="microwave" horiz-adv-x="746" d="M533.504 93.867q-115.712 0-197.632 81.92-51.2 51.2-122.88 51.2t-121.856-51.2q-15.36-15.36-37.888-15.36t-37.888 15.36-15.36 37.888 15.36 37.888q81.92 81.92 197.632 81.92t197.632-81.92q51.2-51.2 122.88-51.2t121.856 51.2q15.36 15.36 37.888 15.36t37.888-15.36 15.36-37.888-15.36-37.888q-81.92-81.92-197.632-81.92zM533.504 307.883q-115.712 0-197.632 81.92-51.2 51.2-122.88 51.2t-121.856-51.2q-15.36-15.36-37.888-15.36t-37.888 15.36-15.36 37.888 15.36 37.888q81.92 81.92 197.632 81.92t197.632-81.92q51.2-51.2 122.88-51.2t121.856 51.2q15.36 15.36 37.888 15.36t37.888-15.36 15.36-37.888-15.36-37.888q-81.92-81.92-197.632-81.92zM533.504 521.899q-115.712 0-197.632 81.92-51.2 51.2-122.88 51.2t-121.856-51.2q-15.36-15.36-37.888-15.36t-37.888 15.36-15.36 36.864 15.36 36.864q81.92 81.92 197.632 81.92t197.632-81.92q51.2-51.2 122.88-51.2t121.856 51.2q15.36 15.36 37.888 15.36t37.888-15.36 15.36-36.864-15.36-36.864q-81.92-81.92-197.632-81.92z" />
<glyph unicode="&#xe80a;" glyph-name="parking" d="M512-38.817c-256.947 0-465.484 208.537-465.484 465.484s208.537 465.484 465.484 465.484c256.947 0 465.484-208.537 465.484-465.484s-208.537-465.484-465.484-465.484zM512 834.431c-225.294 0-406.833-182.47-406.833-407.764s181.539-407.764 406.833-407.764c225.294 0 407.764 182.47 407.764 407.764s-182.47 407.764-407.764 407.764zM663.748 372.671c-28.86-20.481-72.616-30.722-131.267-30.722 0 0-71.685 0-71.685 0s0-167.574 0-167.574c0 0-106.13 0-106.13 0s0 488.759 0 488.759c0 0 156.403 0 156.403 0 40.963 0 73.547-1.862 95.89-6.517 40.963-9.31 71.685-27.929 91.235-57.72 15.826-24.205 24.205-54.927 24.205-92.166 0-59.582-19.55-104.269-58.651-134.059zM591.132 566.312c-13.965 9.31-35.377 14.895-64.237 14.895 0 0-66.099 0-66.099 0s0-157.334 0-157.334c0 0 66.099 0 66.099 0 31.653 0 54.927 6.517 67.961 18.619 13.965 12.103 21.412 32.584 21.412 59.582 0 30.722-8.379 52.134-25.136 64.237z" />
<glyph unicode="&#xe80b;" glyph-name="washer" d="M64.67 634.099q-12.627 36.977 18.037 62.23l140.693 112.734q15.331 11.725 35.173 11.725h506.854q19.841 0 35.173-11.725l141.594-112.734q29.762-25.252 17.135-62.23l-55.916-168.651q-9.019-26.154-35.173-35.173-9.019-3.608-18.037-3.608-16.233 0-27.958 7.215v-345.418q0-22.547-17.135-39.683t-39.683-17.135h-506.854q-23.449 0-39.683 17.135t-17.135 39.683v345.418q-11.725-7.215-27.958-7.215-9.019 0-17.135 3.608-27.056 9.019-35.173 35.173zM117.881 652.136l55.916-168.651 84.776 55.916v-450.938h506.854v450.938l84.776-55.916 56.818 168.651-141.594 112.734h-118.146q-11.725-36.977-48.701-60.426t-86.58-24.35-86.58 24.35-48.701 60.426h-118.146zM406.481 764.87q12.627-24.351 40.585-40.585t64.935-16.233 64.935 16.233 40.585 40.585h-211.039z" />
<glyph unicode="&#xe80c;" glyph-name="security_monitoring" d="M0 426.667q6.144 50.176 65.536 112.64 80.896 81.92 180.224 132.096 132.096 61.44 266.24 61.44 140.288-2.048 266.24-61.44 105.472-54.272 180.224-132.096 65.536-74.752 65.536-112.64-6.144-50.176-65.536-111.616-80.896-81.92-180.224-132.096-132.096-62.464-266.24-62.464-140.288 2.048-266.24 62.464-105.472 54.272-180.224 132.096-65.536 73.728-65.536 111.616zM270.336 426.667q0-96.256 70.656-162.816t171.008-66.56 171.008 66.56 70.656 162.816-70.656 162.816-171.008 67.584-171.008-67.584-70.656-162.816zM358.4 427.691q0 61.44 45.056 104.448t108.544 43.008 108.544-43.008 45.056-104.448-45.056-104.448-108.544-44.032-108.544 44.032-45.056 104.448z" />
<glyph unicode="&#xe80d;" glyph-name="swimming_pool" horiz-adv-x="870" d="M573.678 770.202c-8.456 0-22.198-5.285-29.597-8.456l-211.406-102.532c-27.483-12.684-38.053-53.909-20.084-79.277l64.479-86.677-235.718-183.924 108.874-34.882 141.642 46.509c5.285 2.114 11.627 3.171 16.913 3.171s10.57-1.057 16.913-3.171l141.642-46.509 73.992 25.369-202.95 293.855 160.669 80.334c31.711 15.855 29.597 43.338 26.426 60.251-3.171 14.798-22.198 35.939-51.795 35.939zM673.039 611.648c-58.137 0-105.703-47.566-105.703-105.703s47.566-105.703 105.703-105.703c58.137 0 105.703 47.566 105.703 105.703s-47.566 105.703-105.703 105.703zM91.671 241.686c-5.285 0-12.684-2.114-16.913-3.171l-88.791-29.597v-108.874l105.703 35.939 141.642-49.681c6.342-2.114 11.627-3.171 16.913-3.171s11.627 2.114 16.913 3.171l141.642 49.681 141.642-49.681c6.342-2.114 11.627-3.171 16.913-3.171s11.627 2.114 16.913 3.171l141.642 49.681 158.555-52.852v108.874l-141.642 46.509c-5.285 2.114-11.627 3.171-16.913 3.171s-10.57-1.057-16.913-3.171l-141.642-46.509-141.642 46.509c-6.342 2.114-11.627 3.171-16.913 3.171s-11.627-2.114-16.913-3.171l-141.642-46.509-141.642 46.509c-7.399 2.114-11.627 3.171-16.913 3.171z" />
<glyph unicode="&#xe80e;" glyph-name="gas" horiz-adv-x="709" d="M694.272 255.659c0-188.416-153.6-340.992-344.064-340.992-189.44 0-343.040 152.576-343.040 340.992 0-132.096-57.344 303.104 172.032 512-43.008-150.528-67.584-208.896-43.008-256 5.12-9.216 9.216-20.48 13.312-30.72 9.216 9.216 19.456 19.456 29.696 30.72 209.92 317.44 84.992 427.008 84.992 427.008s244.736-131.072 387.072-427.008c57.344-142.336 43.008-340.992 43.008-256zM350.208 554.667c0 0-37.888-68.608 0-271.36-9.216-140.288-53.248-108.544-53.248-108.544s-54.272 217.088-54.272 217.088c0 0-106.496-187.392-106.496-217.088 0-119.808 96.256-217.088 214.016-217.088 118.784 0 215.040 97.28 215.040 217.088 0 89.088-215.040 379.904-215.040 379.904z" />
<glyph unicode="&#xe80f;" glyph-name="refrigerator" horiz-adv-x="883" d="M837.632 258.731q22.528-5.12 35.84-23.552t7.168-40.96q-6.144-33.792-40.96-43.008t-56.32 15.36l-88.064 100.352 21.504-77.824q6.144-24.576-9.216-46.080t-43.008-22.528q-18.432 0-31.744 11.264t-19.456 28.672l-21.504 80.896q-33.792-26.624-65.536-38.912l58.368-58.368q15.36-15.36 15.36-36.864t-15.36-37.888q-16.384-16.384-36.864-16.384-21.504 0-37.888 16.384l-37.888 37.888h-12.288l34.816-106.496q7.168-21.504-3.072-43.008t-32.768-28.672q-29.696-10.24-56.32 12.288t-14.336 59.392l35.84 106.496h-14.336l-36.864-37.888q-15.36-15.36-37.888-15.36t-37.888 15.36-15.36 37.888 15.36 36.864l59.392 58.368q-32.768 12.288-65.536 38.912l-21.504-80.896q-5.12-17.408-19.456-28.672t-31.744-11.264q-28.672 0-43.008 22.528t-8.192 46.080l20.48 78.848-89.088-101.376q-15.36-16.384-38.912-17.408t-39.936 14.336q-18.432 15.36-19.456 37.888t14.336 40.96q12.288 13.312 30.72 16.384l130.048 27.648-77.824 21.504q-21.504 6.144-32.768 25.6t-5.12 39.936 23.552 31.744 40.96 5.12l80.896-20.48q-4.096 19.456-4.096 36.864t4.096 36.864l-80.896-20.48q-10.24-2.048-13.312-2.048-18.432 0-32.768 11.264t-18.432 28.672q-5.12 20.48 5.12 38.912t32.768 25.6l77.824 22.528-130.048 26.624q-23.552 5.12-35.84 23.552t-8.192 41.984q7.168 32.768 40.96 43.008t56.32-16.384l89.088-101.376-20.48 79.872q-7.168 21.504 5.12 40.96t31.744 23.552q21.504 7.168 40.96-5.12t24.576-31.744l21.504-80.896q32.768 27.648 65.536 38.912l-59.392 58.368q-15.36 15.36-15.36 37.888t15.36 36.864 37.888 15.36 37.888-15.36l57.344-57.344-41.984 125.952q-8.192 22.528 3.072 43.008t32.768 28.672q29.696 10.24 55.296-12.288t15.36-59.392l-43.008-125.952 58.368 57.344q15.36 15.36 37.888 15.36t36.864-15.36 15.36-36.864-15.36-37.888l-58.368-58.368q31.744-11.264 65.536-38.912l21.504 80.896q5.12 20.48 24.576 31.744t40.96 5.12 32.768-25.6 5.12-38.912l-21.504-78.848 88.064 100.352q15.36 16.384 38.912 17.408t40.96-13.312q17.408-15.36 18.432-38.912t-13.312-40.96q-13.312-12.288-30.72-16.384l-131.072-26.624 79.872-22.528q20.48-5.12 31.744-23.552t5.12-40.96q-5.12-18.432-19.456-29.696t-31.744-10.24q-4.096 0-14.336 2.048l-80.896 20.48q4.096-18.432 4.096-36.864t-4.096-36.864l80.896 20.48q21.504 6.144 40.96-5.12t24.576-31.744q6.144-22.528-5.12-40.96t-31.744-24.576l-79.872-21.504zM441.344 293.547q55.296 0 94.208 38.912t38.912 94.208-38.912 94.208-94.208 38.912-94.208-38.912-39.936-94.208 39.936-94.208 94.208-38.912z" />
<glyph unicode="&#xe810;" glyph-name="heating" d="M75.154-10.179c0 0 0 75.137 0 75.137s873.692 0 873.692 0c0 0 0-75.137 0-75.137s-873.692 0-873.692 0zM889.435 279.887c-32.327-65.527-93.485-103.969-159.012-110.959 0 0 0 76.011 0 76.011 39.317 6.116 75.137 30.58 94.359 69.896 30.58 59.412 12.232 131.053-37.569 168.623 0 0 0.874 1.748 0.874 1.748-86.496 57.664-117.948 173.865-69.896 269.096 32.327 64.653 92.612 103.095 158.138 109.211 0 0 0-75.137 0-75.137-39.317-6.116-74.263-29.706-93.485-68.149-29.706-59.412-12.232-130.18 38.443-167.749 0 0-0.874-1.748-0.874-1.748 86.496-56.79 117.948-173.865 69.022-270.844zM598.496 279.887c-33.2-65.527-94.359-103.969-159.012-110.959 0 0 0 76.011 0 76.011 38.443 6.116 74.263 30.58 94.359 69.896 29.706 59.412 12.232 131.053-38.443 168.623 0 0 0.874 1.748 0.874 1.748-85.622 57.664-117.948 173.865-69.896 269.096 32.327 64.653 93.485 103.095 158.138 109.211 0 0 0-75.137 0-75.137-38.443-6.116-73.39-29.706-93.485-68.149-29.706-59.412-11.359-130.18 39.317-167.749 0 0-0.874-1.748-0.874-1.748 86.496-56.79 117.948-173.865 69.022-270.844zM307.556 279.887c-33.2-65.527-94.359-103.969-159.885-110.959 0 0 0 76.011 0 76.011 39.317 6.116 75.137 30.58 95.233 69.896 29.706 59.412 12.232 131.053-38.443 168.623 0 0 0.874 1.748 0.874 1.748-85.622 57.664-117.948 173.865-69.895 269.096 32.327 64.653 93.485 103.095 158.138 109.211 0 0 0-75.137 0-75.137-38.443-6.116-74.263-29.706-93.485-68.149-29.706-59.412-11.359-130.18 39.317-167.749 0 0-0.874-1.748-0.874-1.748 85.622-56.79 117.075-173.865 69.022-270.844z" />
<glyph unicode="&#xe812;" glyph-name="shower" horiz-adv-x="981" d="M894.976-85.333c0 0 0 683.008 0 683.008 0 141.312-114.688 256-257.024 256-129.024 0-235.52-95.232-253.952-218.112 119.808-22.528 210.944-125.952 210.944-251.904 0 0-516.096 0-516.096 0 0 128 94.208 232.448 217.088 251.904 19.456 171.008 164.864 303.104 342.016 303.104 189.44 0 343.040-152.576 343.040-340.992 0 0 0-683.008 0-683.008s-86.016 0-86.016 0zM121.856 298.667c0 0-35.84-166.912-35.84-166.912s-41.984 9.216-41.984 9.216c0 0 35.84 166.912 35.84 166.912s41.984-9.216 41.984-9.216zM41.984-77.141c0 0-41.984 9.216-41.984 9.216s35.84 166.912 35.84 166.912c0 0 41.984-9.216 41.984-9.216s-35.84-166.912-35.84-166.912zM165.888 2.731c0 0-11.264-83.968-11.264-83.968s-43.008 5.12-43.008 5.12c0 0 12.288 84.992 12.288 84.992s41.984-6.144 41.984-6.144zM165.888 304.811c0 0 41.984-6.144 41.984-6.144s-35.84-253.952-35.84-253.952c0 0-41.984 6.144-41.984 6.144s35.84 253.952 35.84 253.952zM293.888 127.659c0 0-43.008 0-43.008 0s0 171.008 0 171.008c0 0 43.008 0 43.008 0s0-171.008 0-171.008zM293.888-85.333c0 0-43.008 0-43.008 0s0 171.008 0 171.008c0 0 43.008 0 43.008 0s0-171.008 0-171.008zM379.904 42.667c0 0-43.008 0-43.008 0s0 256 0 256c0 0 43.008 0 43.008 0s0-256 0-256zM379.904-85.333c0 0-43.008 0-43.008 0s0 84.992 0 84.992c0 0 43.008 0 43.008 0s0-84.992 0-84.992zM489.472 135.851c0 0-43.008-6.144-43.008-6.144s-23.552 168.96-23.552 168.96c0 0 43.008 6.144 43.008 6.144s23.552-168.96 23.552-168.96zM519.168-76.117c0 0-41.984-5.12-41.984-5.12s-24.576 168.96-24.576 168.96c0 0 43.008 6.144 43.008 6.144s23.552-169.984 23.552-169.984zM550.912 307.883c0 0 53.248-250.88 53.248-250.88s-41.984-9.216-41.984-9.216c0 0-53.248 250.88-53.248 250.88s41.984 9.216 41.984 9.216zM630.784-67.925c0 0-41.984-9.216-41.984-9.216s-17.408 83.968-17.408 83.968c0 0 41.984 8.192 41.984 8.192s17.408-82.944 17.408-82.944z" />
</font>
</defs>
</svg>
